<?xml version="1.0" encoding="UTF-8"?>
<svg width="22px" height="32px" viewBox="0 0 22 32" version="1.1" xmlns="http://www.w3.org/2000/svg" xmlns:xlink="http://www.w3.org/1999/xlink">
    <!-- Generator: sketchtool 52.3 (67297) - http://www.bohemiancoding.com/sketch -->
    <title>494F51A4-5D94-4C93-A67A-ECC207922E6E</title>
    <desc>Created with sketchtool.</desc>
    <g id="Symbols" stroke="none" stroke-width="1" fill="none" fill-rule="evenodd">
        <g id="reassurance" transform="translate(-518.000000, -32.000000)" fill="#FFFFFF" fill-rule="nonzero">
            <g id="Group-2-Copy-2">
                <g id="icon_securise" transform="translate(518.000000, 32.000000)">
                    <path d="M21.9854498,17.3799442 L21.9854498,24.3560703 C21.9854498,28.3014336 18.7868834,31.5 14.8415201,31.5 L7.64392966,31.5 C3.6985664,31.5 0.5,28.3014336 0.5,24.3560703 L0.5,17.3799442 C0.5,15.0211381 1.65539528,12.8602842 3.54513443,11.5344194 L3.54513443,6.53660805 C3.54513443,3.20735853 6.25249296,0.5 9.58174248,0.5 L12.9037073,0.5 C16.2329568,0.5 18.9403154,3.20735853 18.9403154,6.53660805 L18.9403154,11.5344194 C20.8300545,12.8602842 21.9854498,15.0211381 21.9854498,17.3799442 Z M17.9403154,6.53660805 C17.9403154,3.75964328 15.6806721,1.5 12.9037073,1.5 L9.58174248,1.5 C6.80477771,1.5 4.54513443,3.75964328 4.54513443,6.53660805 L4.54513443,12.0725676 L4.3165241,12.2203097 C2.57360957,13.3466888 1.5,15.2708579 1.5,17.3799442 L1.5,24.3560703 C1.5,27.7491489 4.25085115,30.5 7.64392966,30.5 L14.8415201,30.5 C18.2345986,30.5 20.9854498,27.7491489 20.9854498,24.3560703 L20.9854498,17.3799442 C20.9854498,15.2708579 19.9118402,13.3466888 18.1689257,12.2203097 L17.9403154,12.0725676 L17.9403154,6.53660805 Z M11.9607787,20.597458 L12.164976,20.4476192 C12.5684311,20.1515662 12.8098729,19.6905088 12.8098729,19.1884218 C12.8098729,18.3227461 12.1080616,17.6208309 11.2427249,17.6208309 C10.3773882,17.6208309 9.67557691,18.3227461 9.67557691,19.1884218 C9.67557691,19.6903788 9.91690922,20.1511369 10.3207001,20.4477854 L10.5246711,20.5976344 L10.5246711,24.0407051 C10.5246711,24.4376332 10.8458775,24.7587589 11.2427249,24.7587589 C11.6395723,24.7587589 11.9607787,24.4376332 11.9607787,24.0407051 L11.9607787,20.597458 Z M12.9607787,24.0407051 C12.9607787,24.9899742 12.1918008,25.7587589 11.2427249,25.7587589 C10.293649,25.7587589 9.52467113,24.9899742 9.52467113,24.0407051 L9.52467113,21.087555 C8.99109329,20.6066201 8.67557691,19.9244851 8.67557691,19.1884218 C8.67557691,17.7704945 9.82507035,16.6208309 11.2427249,16.6208309 C12.6603794,16.6208309 13.8098729,17.7704945 13.8098729,19.1884218 C13.8098729,19.9245548 13.4942831,20.6070421 12.9607787,21.0876723 L12.9607787,24.0407051 Z M15.7256721,6.53616512 C15.7256721,4.98035463 14.4595178,3.71420029 12.9037073,3.71420029 L9.58174248,3.71420029 C8.02593198,3.71420029 6.75977765,4.98035463 6.75977765,6.53616512 L6.75977765,10.2911329 C7.05294959,10.2542785 7.34785868,10.2355716 7.64392966,10.2355716 L14.8415201,10.2355716 C15.1375911,10.2355716 15.4325002,10.2542785 15.7256721,10.2911329 L15.7256721,6.53616512 Z M16.1219341,11.371301 C15.6985316,11.2815011 15.2711208,11.2355716 14.8415201,11.2355716 L7.64392966,11.2355716 C7.21432902,11.2355716 6.78691819,11.2815011 6.3635157,11.371301 L5.75977765,11.4993485 L5.75977765,6.53616512 C5.75977765,4.42806988 7.47364723,2.71420029 9.58174248,2.71420029 L12.9037073,2.71420029 C15.0118026,2.71420029 16.7256721,4.42806988 16.7256721,6.53616512 L16.7256721,11.4993485 L16.1219341,11.371301 Z"></path>
                </g>
            </g>
        </g>
    </g>
</svg>