<?xml version="1.0" encoding="UTF-8"?>
<svg width="67px" height="50px" viewBox="0 0 67 50" version="1.1" xmlns="http://www.w3.org/2000/svg" xmlns:xlink="http://www.w3.org/1999/xlink">
    <!-- Generator: sketchtool 52.3 (67297) - http://www.bohemiancoding.com/sketch -->
    <title>7C7D9DAE-51D7-41E9-8273-7F9E03224DE4</title>
    <desc>Created with sketchtool.</desc>
    <g id="Symbols" stroke="none" stroke-width="1" fill="none" fill-rule="evenodd">
        <g id="icon_coupefil">
            <g>
                <path d="M19.2008411,41.5336074 C19.1094871,41.7163153 19.1551641,41.9447003 19.2921951,42.0817313 C19.3835491,42.1730853 19.4749031,42.2187623 19.6119341,42.2187623 C19.7032881,42.2187623 19.7489651,42.2187623 19.8403191,42.1730853 C26.8288998,38.0621555 30.8941527,33.0833627 31.9904006,27.3737379 C32.5842016,24.404733 32.2644626,21.6184361 31.6249846,19.2432322 C34.7310205,20.3851571 36.7864855,21.8924981 36.8321625,21.9381751 C37.4259634,22.531976 38.2024724,22.806038 39.0246584,22.806038 C39.8468443,22.806038 40.6690303,22.486299 41.2628313,21.8924981 C41.8566323,21.2986971 42.1763713,20.5221881 42.1763713,19.6543251 C42.1763713,18.8321392 41.8566323,18.0099532 41.2628313,17.4161522 C40.0295523,16.1828733 38.0197644,16.1828733 36.7864855,17.4161522 C36.1926845,18.0099532 35.8729455,18.7864622 35.8729455,19.6543251 C35.8729455,19.8370331 35.8729455,20.0197411 35.9186225,20.2024491 C34.8680515,19.5629711 33.2693566,18.7407852 31.2595687,18.1013072 C30.6200907,16.1371963 29.7979047,14.5385013 29.1584267,13.4422534 C29.3868117,13.5336074 29.5695197,13.5336074 29.7979047,13.5336074 C30.6200907,13.5336074 31.3965997,13.2138684 32.0360776,12.6200674 C33.2693566,11.3867884 33.2693566,9.3770005 32.0360776,8.14372155 C30.8027987,6.91044259 28.7930107,6.91044259 27.5597318,8.14372155 C26.3264528,9.3770005 26.3264528,11.3411114 27.5140548,12.5743904 C27.5597318,12.6657444 29.1127497,14.6755323 30.2089977,17.7815682 C27.8337938,17.1420902 25.0474969,16.8680282 22.078492,17.4161522 C16.3688672,18.5580772 11.3900744,22.669007 7.32482151,29.6119108 C7.23346751,29.7946188 7.23346751,30.0230038 7.37049851,30.1600348 C7.46185251,30.2513888 7.5988835,30.2970658 7.6902375,30.2970658 C7.7359145,30.2970658 7.82726849,30.2970658 7.87294549,30.2513888 L29.7979047,19.5629711 L19.2008411,41.5336074 Z M37.4716404,18.1013072 C37.9284104,17.6445372 38.4765344,17.4618292 39.0703354,17.4618292 C39.6641364,17.4618292 40.2122603,17.6902142 40.6690303,18.1013072 C41.0801233,18.5124002 41.3085083,19.1062012 41.3085083,19.7000021 C41.3085083,20.2938031 41.0801233,20.8419271 40.6690303,21.2986971 C40.2579373,21.7554671 39.6641364,21.9381751 39.0703354,21.9381751 C38.4765344,21.9381751 37.9284104,21.7097901 37.4716404,21.2986971 C37.0605474,20.8876041 36.8321625,20.2938031 36.8321625,19.7000021 C36.8321625,19.1062012 37.0605474,18.5124002 37.4716404,18.1013072 Z M28.1992098,8.82887652 C28.6559797,8.37210654 29.2041037,8.18939855 29.7979047,8.18939855 C30.3917057,8.18939855 30.9398297,8.41778354 31.3965997,8.82887652 C32.2644626,9.69673949 32.2644626,11.1127264 31.3965997,11.9805894 C30.5287367,12.8484524 29.1127497,12.8484524 28.2448868,11.9805894 C27.3313468,11.1127264 27.3313468,9.69673949 28.1992098,8.82887652 Z M8.92351645,28.7440478 C12.6690303,22.806038 17.1910532,19.3345861 22.2612,18.3296922 C23.2660939,18.1469842 24.3166649,18.0556302 25.2758819,18.0556302 C26.8745768,18.0556302 28.3819178,18.2840152 29.7065507,18.6494312 L8.92351645,28.7440478 Z M30.8027987,19.7456791 C31.3509227,21.9381751 31.6249846,24.496087 31.0768607,27.1910299 C30.0719667,32.3068537 26.6005148,36.7831995 20.662505,40.5287134 L30.8027987,19.7456791 Z" id="Shape" fill="#FFFFFF" fill-rule="nonzero" transform="translate(24.718762, 24.718762) scale(-1, 1) rotate(45.000000) translate(-24.718762, -24.718762) "></path>
                <path d="M30.5,24.5 L66.5,24.5" id="Line" stroke="#FFFFFF" stroke-linecap="square" stroke-dasharray="5"></path>
            </g>
        </g>
    </g>
</svg>