<?xml version="1.0" encoding="UTF-8"?>
<svg width="32px" height="47px" viewBox="0 0 32 47" version="1.1" xmlns="http://www.w3.org/2000/svg" xmlns:xlink="http://www.w3.org/1999/xlink">
    <!-- Generator: sketchtool 52.3 (67297) - http://www.bohemiancoding.com/sketch -->
    <title>BC0E8B7C-D47B-417D-AA5A-AAE3A8A84439</title>
    <desc>Created with sketchtool.</desc>
    <g id="Symbols" stroke="none" stroke-width="1" fill="none" fill-rule="evenodd">
        <g id="icon_meilleurprix" fill-rule="nonzero">
            <g id="Group">
                <path d="M8.39563668,35.4378772 L8.59343485,36.2017874 C9.37480869,39.2195071 10.8951826,41.5934243 13.1666112,43.3571217 C15.4353183,45.1187061 18.1726706,46 21.4149856,46 C23.4611923,46 25.2662013,45.7025453 26.833879,45.1129914 C28.219347,44.5919606 29.5171337,43.8737279 30.729447,42.9563026 C30.6976906,42.8815205 30.6617173,42.8054013 30.6214287,42.7279233 C30.6192197,42.7236751 30.61701,42.7194473 30.6147998,42.7152399 C29.6111204,43.2421581 28.5860588,43.6640491 27.54011,43.9802662 C26.2096604,44.3824951 24.9166526,44.5850144 23.6628242,44.5850144 C21.184489,44.5850144 19.0796616,43.8645158 17.3930381,42.4211553 C15.7402633,41.0067614 14.5572461,39.0745 13.8419833,36.6488263 L13.4637123,35.3659942 L22.3586831,35.3659942 C22.458072,35.0551889 22.5306127,34.6841919 22.5736187,34.2536023 L13.2508495,34.2536023 L13.158046,33.3565015 C13.0680281,32.4863285 13.0230548,31.6018534 13.0230548,30.70317 L13.0230548,29.4562259 L14.0105557,29.4438822 C16.1996039,29.416519 19.3187956,29.4021322 23.3693486,29.4006959 C23.4620213,29.0825837 23.5294818,28.7115722 23.5697758,28.2881844 L13.0774945,28.2881844 L13.2995486,27.1038959 C13.7638317,24.627719 14.6830875,22.608499 16.0668013,21.0657377 C17.519019,19.4465984 19.5140796,18.6368876 21.9769452,18.6368876 C23.9760304,18.6368876 25.5762797,19.2630721 26.7012998,20.5287197 C27.6681457,21.6164213 28.2102048,23.2555872 28.3749558,25.4416164 C28.9569442,25.4084045 29.4333901,25.3433254 29.7990778,25.2517796 C29.8211706,23.1952817 29.9425568,21.3922417 30.1646899,19.8402913 C27.3782844,18.6117197 24.5793953,18 21.7608069,18 C19.7262847,18 17.807132,18.3649093 15.9962547,19.0946659 C14.2040914,19.8168809 12.6568589,20.8906069 11.3455093,22.3223865 C10.0464497,23.7407475 9.12950939,25.4749608 8.59324393,27.5395828 L8.39880195,28.2881844 L4.75038542,28.2881844 C4.69175256,28.5018974 4.63751733,28.7412247 4.58831737,29.0056745 C4.55391179,29.1906045 4.52523816,29.3713473 4.50225453,29.5478948 C5.22553384,29.5361207 6.09338685,29.5302594 7.10662824,29.5302594 L8.22389326,29.5302594 L8.10051198,30.6406909 C8.07680999,30.8540088 8.06340058,31.2562911 8.06340058,31.8270893 C8.06340058,32.4334028 8.07700667,32.882404 8.10252145,33.1630666 L8.20166106,34.2536023 L4.31048356,34.2536023 C4.2554464,34.455463 4.20388945,34.6863572 4.15678057,34.945456 C4.12106779,35.1418764 4.09150501,35.3329874 4.06804233,35.5187668 L8.39563668,35.4378772 Z M15.5488496,36.3659942 L14.8011527,36.3659942 C14.8714625,36.604436 14.9464739,36.8374459 15.0261871,37.0650242 L15.1355404,37.3659942 C15.8052278,39.1438171 16.7744503,40.5756027 18.0432277,41.6613833 C19.5417942,42.9438104 21.4149744,43.5850144 23.6628242,43.5850144 C24.8155677,43.5850144 26.0115212,43.3976964 27.2507205,43.0230548 C28.4899197,42.6484131 29.7002823,42.1152772 30.8818444,41.4236311 C31.1123931,41.6253612 31.3213247,41.9063383 31.5086455,42.2665706 C31.6959664,42.626803 31.8184435,42.9798254 31.8760807,43.3256484 C30.4351513,44.5072105 28.8717664,45.4149824 27.185879,46.0489914 C25.4999916,46.6830003 23.5763797,47 21.4149856,47 C17.956755,47 15.0028941,46.0490009 12.5533141,44.1469741 C10.1037341,42.2449473 8.46109928,39.6801314 7.62536023,36.4524496 L3,36.5389049 C3,35.9913517 3.05763631,35.4005795 3.17291066,34.7665706 C3.28818501,34.1325617 3.43227579,33.6282439 3.60518732,33.2536023 L6.10312589,33.2536023 C6.10554771,33.2847977 6.10808378,33.3149742 6.11073504,33.3441381 L7.10662824,33.2536023 L7.10662824,32.2536023 L7.06585856,32.2536023 C7.0642199,32.1204443 7.06340058,31.9782734 7.06340058,31.8270893 C7.06340058,31.7230354 7.06382654,31.6240932 7.06467846,31.5302628 L7.10662824,31.5302594 L7.10662824,30.5302594 C6.43895973,30.5052516 6.10397851,30.5059656 6.10168458,30.5324014 C4.99417712,30.5373884 4.10438024,30.5510836 3.43227666,30.573487 C3.43227666,30.0259339 3.48991297,29.4423662 3.60518732,28.8227666 C3.72046167,28.2031669 3.86455245,27.6916447 4.03746398,27.2881844 L7.62536023,27.2881844 C8.20173199,25.0691532 9.19595836,23.1887685 10.6080692,21.6469741 C12.02018,20.1051796 13.691633,18.9452488 15.6224784,18.167147 C17.5533238,17.3890451 19.5994128,17 21.7608069,17 C24.9596702,17 28.1296673,17.749272 31.2708934,19.2478386 C30.9538889,21.0634097 30.795389,23.2968167 30.795389,25.9481268 C30.1325615,26.2939499 29.0086535,26.4668588 27.4236311,26.4668588 C27.3659939,23.9884602 26.8760853,22.2305527 25.9538905,21.1930836 C25.0316957,20.1556144 23.7060605,19.6368876 21.9769452,19.6368876 C19.7867326,19.6368876 18.0648478,20.3357279 16.8112392,21.7334294 C15.7443566,22.9229422 14.9749215,24.4411824 14.5029182,26.2881844 L14.2824207,26.2881844 L14.4521841,26.4927367 C14.3899038,26.7515937 14.333316,27.016743 14.2824207,27.2881844 L15.112347,27.2881844 L15.2652929,27.472473 C15.2768818,27.4106657 15.2887777,27.3492363 15.3009805,27.2881844 L24.6138329,27.2881844 C24.6138329,28.6138395 24.4265148,29.6512931 24.0518732,30.4005764 C19.6714478,30.4005764 16.3285418,30.4149854 14.0230548,30.443804 L14.0230548,30.70317 C14.0230548,31.5677277 14.066282,32.4178633 14.1527378,33.2536023 L23.6195965,33.2536023 C23.6195965,34.6080759 23.4178695,35.6455295 23.0144092,36.3659942 L15.8469436,36.3659942 C15.8271748,36.3038083 15.7278102,36.3038083 15.5488496,36.3659942 Z" id="€" fill="#FFFFFF"></path>
                <path d="M20.6814388,15.7218364 L20.5429745,15.9972419 L20.9896929,15.7218364 L20.6814388,15.7218364 Z M6.31935707,15.7218364 L6.01110303,15.7218364 L6.4578214,15.9972419 L6.31935707,15.7218364 Z M2.36834662,7.86327893 L1.82988591,6.79228088 L1.387089,7.51686002 L1.38533782,7.51687047 C1.44178702,7.51664805 1.56461495,7.53059461 1.73036863,7.57533911 C1.94496209,7.63326771 2.1602489,7.72687733 2.36834662,7.86327893 Z M5.06251251,8.65890258 C5.13069182,8.94402466 5.09377588,9.21424072 5.00054409,9.29993391 L5.33890113,9.66805688 L5.82052209,9.53373916 C5.78939319,9.42212075 5.73168183,9.27748773 5.63527361,9.12668125 C5.49001449,8.89945978 5.2943424,8.73111278 5.06251251,8.65890258 Z M8.8737345,10.0698673 C8.97850774,9.77993548 9.04425105,9.46082358 9.06151531,9.11632368 L9.07492454,8.84874892 L8.51083375,8.43130973 L8.66814453,7.99627389 L7.90042887,8.22809994 L8.27241108,8.5034976 L8.03353219,9.16554414 L8.1913208,9.38042114 C8.39497492,9.65775791 8.62587495,9.88690886 8.8737345,10.0698673 Z M11.2802229,6.79680814 C11.1635567,6.93530825 11.0899755,7.10848237 11.0610661,7.30137719 C11.0356422,7.47101576 11.0455187,7.63796864 11.0760147,7.7985719 C11.0872114,7.85753816 11.0991619,7.90475652 11.1091623,7.93769397 L11.5875962,7.79243188 L11.6755037,7.30022028 C11.5513701,7.27805038 11.3762426,7.07188823 11.2802229,6.79680814 Z M13.5007351,4.09462591 C13.6093023,3.972689 13.7051511,3.8933322 13.7657905,3.85543573 L13.235763,3.85539773 C13.2963644,3.89328249 13.3921946,3.97265331 13.5007351,4.09462591 Z M15.7206615,6.79651324 C15.6246732,7.07161371 15.4495459,7.27777644 15.3253698,7.29993373 L15.4131998,7.79215918 L15.8916488,7.93737126 C15.9016454,7.90443407 15.9135925,7.85721222 15.9247867,7.79824083 C15.9552615,7.63769785 15.9651417,7.47081359 15.9397679,7.30124945 C15.9108925,7.10828592 15.8373263,6.9350485 15.7206615,6.79651324 Z M18.1257461,10.0707184 C18.3637336,9.89524636 18.5860696,9.67712446 18.7836333,9.41454284 L18.9462391,9.19842379 L18.7124676,8.55129947 L19.0843605,8.27623087 L18.3167762,8.04412448 L18.4739942,8.47932174 L17.9255592,8.8853797 L17.9414236,9.15551675 C17.9607968,9.48540063 18.0250741,9.79159455 18.1257461,10.0707184 Z M21.9386348,8.6591258 C21.7067897,8.73133097 21.5110777,8.89969569 21.3657951,9.12695395 C21.2693869,9.27776043 21.2116755,9.42239345 21.1805466,9.53401186 L21.6621676,9.66832958 L22.0007676,9.30043014 C21.9074454,9.21454002 21.8705064,8.9442443 21.9386348,8.6591258 Z M25.6014433,6.51713758 C25.6018259,6.51712751 25.6022084,6.51711752 25.6025908,6.51710761 C25.601806,6.51713176 25.6012834,6.51714785 25.5994786,6.51726638 Z M4.91814768,10.0206263 L4.85728017,9.80237459 C4.85047172,9.77796165 4.82676438,9.71854764 4.79272854,9.66530709 C4.77089786,9.63115847 4.77584946,9.62503652 4.78113321,9.62567526 C4.74373155,9.65973318 4.78346915,9.81768353 4.91814768,10.0206263 Z M12.13194,7.8642505 C12.1362641,7.63694269 12.0918972,7.4869653 12.0482025,7.46503014 C12.0445462,7.50620011 12.0484914,7.55952289 12.05846,7.61202118 C12.0625324,7.63346773 12.065851,7.64658045 12.06603,7.6471698 L12.13194,7.8642505 Z M14.869041,7.86344956 L14.9347507,7.6469471 C14.9349335,7.64634488 14.9382555,7.63321452 14.9423305,7.61174747 C14.9522908,7.55927587 14.9562412,7.50598236 14.9526063,7.46480243 C14.909054,7.48684826 14.8648112,7.63657344 14.869041,7.86344956 Z M22.0830594,10.0204027 C22.2223899,9.81029051 22.2599631,9.64850834 22.2155119,9.62970962 C22.2105347,9.62760194 22.2427959,9.61168238 22.2083402,9.66557979 C22.1743043,9.71882034 22.150597,9.77823435 22.1437885,9.80264729 L22.0830594,10.0204027 Z" id="Shape" stroke="#FFFFFF" transform="translate(13.500398, 9.826631) rotate(-18.000000) translate(-13.500398, -9.826631) "></path>
            </g>
        </g>
    </g>
</svg>