<?xml version="1.0" encoding="UTF-8"?>
<svg width="31px" height="35px" viewBox="0 0 31 35" version="1.1" xmlns="http://www.w3.org/2000/svg" xmlns:xlink="http://www.w3.org/1999/xlink">
    <!-- Generator: sketchtool 52.3 (67297) - http://www.bohemiancoding.com/sketch -->
    <title>091BC5D1-78D3-4226-B04E-B8E949E19E92</title>
    <desc>Created with sketchtool.</desc>
    <g id="Symbols" stroke="none" stroke-width="1" fill="none" fill-rule="evenodd">
        <g id="reassurance" transform="translate(-91.000000, -31.000000)" fill="#FFFFFF" fill-rule="nonzero">
            <g id="Group-2-Copy-2">
                <g id="icon_serviceclient" transform="translate(91.000000, 31.000000)">
                    <path d="M29.5320674,26.3635118 C28.9168813,23.7158233 27.3752101,22.0209732 24.9577017,21.3279624 C22.9766706,20.7148351 19.7179137,19.6800542 19.4099089,19.5141105 C19.2489064,19.4041676 19.1340222,18.6481557 19.1566696,17.9156148 C20.1144493,16.9199522 20.822284,15.6315202 21.0322872,14.2854403 C21.5140595,14.1569677 21.9814198,13.6681954 22.2466004,12.9900083 C22.4887218,12.3723516 22.5056044,11.7707539 22.3293664,11.3416884 C23.5902097,8.34728854 23.2130273,4.65823077 21.5284715,3.53656615 C20.7489887,1.97265931 19.3209663,0.826700186 17.4918789,0.303750821 C15.2786089,-0.328729671 12.7985113,0.0393937405 10.8565985,1.28788388 C5.21945141,4.91394066 7.59372388,10.7545027 7.9503177,11.5451033 C7.84943376,11.9515214 7.88690494,12.463353 8.09320229,12.9900083 C8.131497,13.0875981 8.18132131,13.1711876 8.22743968,13.2601302 C8.22743968,13.2613655 8.22661614,13.2630126 8.22661614,13.2642479 C8.22661614,15.3469864 8.99292226,15.9049363 9.8745243,16.0453503 C10.1965293,16.7095371 10.6251831,17.3255468 11.1300145,17.8608493 C11.1600738,18.609861 11.0431308,19.4016969 10.8825401,19.5120516 C10.5700058,19.680466 7.31166064,20.7152469 5.33845327,21.3259035 C2.81223724,22.0506208 1.43321565,23.5309381 0.72743989,26.2811576 L0.00766391375,29.1738499 C-0.0442192516,29.8343309 0.168666435,30.4581642 0.605555629,30.931701 C1.04326837,31.4048261 1.6493955,31.6654772 2.31234706,31.6654772 L12.9352193,31.6654772 L12.8409237,32.4840783 L15.1476657,35 L17.3786418,32.4795488 L17.2851698,31.6650654 L27.9735136,31.6650654 C28.6360534,31.6650654 29.2417687,31.4044143 29.680305,30.931701 C30.1184295,30.4585759 30.331727,29.8343309 30.2810791,29.1742617 L29.5320674,26.3635118 Z M11.1242497,20.2717694 L13.8818812,23.3073463 L11.9860868,24.7864283 L10.296178,20.5735976 C10.6585366,20.448831 10.9480117,20.3442411 11.1242497,20.2717694 Z M14.6403636,22.9593997 L11.683435,19.7035252 C11.829202,19.3774024 11.8934383,18.966043 11.9169092,18.5835076 C12.8783949,19.3391077 13.9959418,19.8097621 15.0974296,19.8097621 L15.2444319,19.8097621 C16.3253312,19.8097621 17.4222895,19.3543432 18.3714221,18.6213906 C18.3808928,18.7469808 18.394893,18.8738063 18.4134227,19.0014554 C16.8919283,20.3269467 15.3453158,20.1906505 15.3300803,20.1881798 C15.2287846,20.177062 15.1414891,20.2487102 15.1311948,20.3483588 C15.1196653,20.4475957 15.1909017,20.5365382 15.2897267,20.547656 C15.3049623,20.5493031 15.3840223,20.5571268 15.514142,20.5571268 C16.0078556,20.5571268 17.2386396,20.429066 18.4961887,19.4062264 C18.5250127,19.5108163 18.5620721,19.6096414 18.6040728,19.7031134 L15.6459088,22.9593997 L14.6403636,22.9593997 Z M19.1620227,20.2709458 C19.3382607,20.3442411 19.6285594,20.448831 19.9913298,20.5727741 L18.2993621,24.7860165 L16.4043913,23.3069345 L19.1620227,20.2709458 Z M21.5062358,12.6992979 C21.2962326,13.2350121 20.953639,13.5211931 20.7662831,13.5211931 C20.7662831,13.5211931 20.7654595,13.5211931 20.764636,13.5211931 L20.3232173,13.4227798 L20.2812167,13.8728456 C20.1580971,15.2024547 19.4770276,16.4945926 18.5328363,17.451137 C18.5085418,17.4692549 18.4871297,17.4894317 18.4677765,17.5120791 C17.5445856,18.4212698 16.3833909,19.0142203 15.2444319,19.0142203 L15.0974296,19.0142203 C13.4351095,19.0142203 11.7270827,17.7599653 10.7833032,16.0910569 L11.7163767,16.0910569 C11.9123797,16.5468875 12.4275055,16.8758927 13.0373385,16.8758927 C13.815586,16.8758927 14.4484783,16.3455314 14.4484783,15.6932859 C14.4484783,15.0410404 13.815586,14.5110909 13.0373385,14.5110909 C12.4275055,14.5110909 11.9123797,14.8396843 11.7163767,15.295515 L10.5539467,15.295515 C10.5028871,15.295515 10.4522392,15.295515 10.4020031,15.2951032 C10.2245298,14.8351548 10.1047044,14.3566768 10.0610566,13.8728456 L10.0005263,13.4244269 L9.55828405,13.5228402 C9.39028142,13.5228402 9.04398188,13.2366592 8.83439036,12.6992979 C8.59432778,12.0845235 8.69932943,11.5809274 8.85909663,11.5183382 C8.95339223,11.5183382 9.13868925,11.6278693 9.32028033,11.8687554 L10.0355268,12.8170644 L10.0355268,10.4217916 C10.0355268,8.98553382 11.7744364,8.65652867 14.7778952,8.57376267 L15.4321996,8.55646828 C18.0444758,8.48976136 19.6046767,8.45023133 20.2206863,7.19432931 C20.230157,7.20750598 20.2408631,7.2215062 20.2495103,7.23591819 C20.7489887,8.00057723 20.4640431,10.0145499 20.3120995,10.7260905 L20.3038641,12.8104761 L21.0178753,11.8699908 C21.201937,11.6278693 21.3909399,11.5273972 21.5062358,11.5232794 C21.6404732,11.5817509 21.7458867,12.0845235 21.5062358,12.6992979 Z M12.4246231,15.6932859 C12.4246231,15.5104595 12.676627,15.3066328 13.0373385,15.3066328 C13.4001089,15.3066328 13.6529364,15.5104595 13.6529364,15.6932859 C13.6529364,15.8761123 13.4001089,16.0803508 13.0373385,16.0803508 C12.676627,16.0803508 12.4246231,15.8765241 12.4246231,15.6932859 Z M11.2868994,1.95618846 C13.0398092,0.829170813 15.2773736,0.497283263 17.2736402,1.06840985 C18.9190777,1.53947605 20.1939212,2.57425696 20.8605787,3.98292608 L20.9136972,4.09451606 L21.0199341,4.15669351 C22.263483,4.88058719 22.7658438,7.98781232 21.7026507,10.7693265 C21.5136477,10.7182668 21.3102328,10.7178551 21.1105238,10.7965034 C21.2221138,10.2336122 21.6293554,7.89681089 20.915756,6.80232317 C20.7131646,6.49225949 20.4273954,6.29131517 20.0905666,6.22172584 L19.719149,6.14513641 L19.6248534,6.5120245 C19.3423784,7.6098064 18.3878929,7.68598406 15.4107875,7.76174996 L14.754836,7.77904434 C12.5584487,7.83998648 9.23998495,7.93139967 9.23998495,10.4226152 L9.23998495,10.8022682 C8.99251049,10.7026195 8.73927123,10.6989136 8.51897366,10.7927974 C8.51156178,10.7960916 8.50620875,10.8014446 8.49920864,10.8047388 C7.93590571,9.3470689 6.71294538,4.89829335 11.2868994,1.95618846 Z M9.08927671,14.1857917 C9.16298374,14.2220276 9.2350437,14.2656753 9.30998605,14.2854403 C9.34951608,14.5427973 9.41375238,14.7964483 9.48787118,15.0480405 C9.30628011,14.8878615 9.16710146,14.6222691 9.08927671,14.1857917 Z M2.31234706,30.8699353 C1.87422255,30.8699353 1.47521631,30.6998738 1.1898589,30.3910455 C0.904913258,30.0830407 0.76655815,29.6725048 0.790440877,29.301499 L1.49909903,26.4767489 C2.13322661,24.0057102 3.30924502,22.7353962 5.56616272,22.0880919 C6.32629227,21.8529706 8.14879139,21.28555 9.54016612,20.8272487 L11.6418461,26.0653895 L13.7719383,24.4030694 L13.0270443,30.8703471 L2.31234706,30.8703471 L2.31234706,30.8699353 Z M15.1377832,33.8120402 L13.6731132,32.2139564 L14.6465402,23.7545298 L15.5746724,23.7545298 L16.5476876,32.2180741 L15.1377832,33.8120402 Z M29.0968253,30.3910455 C28.8114679,30.6998738 28.4124616,30.8699353 27.9739254,30.8699353 L17.1937566,30.8699353 L16.4435095,24.3483038 L18.6440146,26.0649777 L20.7461063,20.8264251 C22.1399517,21.2851382 23.9645096,21.8533824 24.730404,22.0905626 C26.8872613,22.7086311 28.2041054,24.1650656 28.7595847,26.5562207 L29.489655,29.2706162 C29.5143612,29.6943287 29.3751826,30.0904525 29.0968253,30.3910455 Z"></path>
                </g>
            </g>
        </g>
    </g>
</svg>