<?xml version="1.0" encoding="UTF-8"?>
<svg width="21px" height="21px" viewBox="0 0 21 21" version="1.1" xmlns="http://www.w3.org/2000/svg" xmlns:xlink="http://www.w3.org/1999/xlink">
    <!-- Generator: sketchtool 52.3 (67297) - http://www.bohemiancoding.com/sketch -->
    <title>C0D75C6F-5BAF-40D5-A05F-340BA63D7E07</title>
    <desc>Created with sketchtool.</desc>
    <g id="UI-1" stroke="none" stroke-width="1" fill="none" fill-rule="evenodd">
        <g id="3_Produit_1" transform="translate(-431.000000, -791.000000)" fill="#F03A47">
            <g id="Group-2" transform="translate(78.000000, 702.000000)">
                <g id="Group-16-Copy" transform="translate(354.000000, 89.000000)">
                    <g id="icon_noncompris" transform="translate(0.000000, 1.000000)">
                        <g>
                            <path d="M9.5,20 C3.70101013,20 -1,15.2989899 -1,9.5 C-1,3.70101013 3.70101013,-1 9.5,-1 C15.2989899,-1 20,3.70101013 20,9.5 C20,15.2989899 15.2989899,20 9.5,20 Z M9.5,18 C14.1944204,18 18,14.1944204 18,9.5 C18,4.80557963 14.1944204,1 9.5,1 C4.80557963,1 1,4.80557963 1,9.5 C1,14.1944204 4.80557963,18 9.5,18 Z" id="Oval" fill-rule="nonzero"></path>
                            <path d="M6.70710678,13.6161977 C6.31658249,14.006722 5.68341751,14.006722 5.29289322,13.6161977 C4.90236893,13.2256734 4.90236893,12.5925084 5.29289322,12.2019841 L12.2019841,5.29289322 C12.5925084,4.90236893 13.2256734,4.90236893 13.6161977,5.29289322 C14.006722,5.68341751 14.006722,6.31658249 13.6161977,6.70710678 L6.70710678,13.6161977 Z" id="Shape" fill-rule="nonzero"></path>
                            <path d="M6.70710678,13.6161977 C6.31658249,14.006722 5.68341751,14.006722 5.29289322,13.6161977 C4.90236893,13.2256734 4.90236893,12.5925084 5.29289322,12.2019841 L12.2019841,5.29289322 C12.5925084,4.90236893 13.2256734,4.90236893 13.6161977,5.29289322 C14.006722,5.68341751 14.006722,6.31658249 13.6161977,6.70710678 L6.70710678,13.6161977 Z" id="Shape" fill-rule="nonzero" transform="translate(9.454545, 9.454545) scale(-1, 1) translate(-9.454545, -9.454545) "></path>
                        </g>
                    </g>
                </g>
            </g>
        </g>
    </g>
</svg>