<?xml version="1.0" encoding="UTF-8"?>
<svg width="37px" height="35px" viewBox="0 0 37 35" version="1.1" xmlns="http://www.w3.org/2000/svg" xmlns:xlink="http://www.w3.org/1999/xlink">
    <!-- Generator: sketchtool 52.3 (67297) - http://www.bohemiancoding.com/sketch -->
    <title>BDDD69DE-2E24-47CE-BA44-6AA975CDEA75</title>
    <desc>Created with sketchtool.</desc>
    <g id="Symbols" stroke="none" stroke-width="1" fill="none" fill-rule="evenodd">
        <g id="reassurance" transform="translate(-942.000000, -31.000000)" fill="#FFFFFF">
            <g id="Group-2-Copy-2">
                <g id="icon_date" transform="translate(942.000000, 31.000000)">
                    <g id="Shape">
                        <path d="M32.7727273,3.09392045 L28.6015227,3.09392045 L28.6015227,0.805238636 C28.6015227,0.365909091 28.2453182,0.00978409091 27.8060682,0.00978409091 C27.3668182,0.00978409091 27.0106136,0.365909091 27.0106136,0.805238636 L27.0106136,3.09384091 L9.73938636,3.09384091 L9.73938636,0.805238636 C9.73938636,0.365909091 9.38318182,0.00978409091 8.94393182,0.00978409091 C8.50468182,0.00978409091 8.14847727,0.365909091 8.14847727,0.805238636 L8.14847727,3.09384091 L3.97727273,3.09384091 C1.78420455,3.09384091 0,4.87804545 0,7.07111364 L0,31.0128636 C0,33.2059318 1.78420455,34.9901364 3.97727273,34.9901364 L32.7727273,34.9901364 C34.9657955,34.9901364 36.75,33.2059318 36.75,31.0128636 L36.75,7.07119318 C36.75,4.87804545 34.9657955,3.09392045 32.7727273,3.09392045 Z M3.97727273,4.68482955 L8.14847727,4.68482955 L8.14847727,8.82397727 C8.14847727,9.26330682 8.50468182,9.61943182 8.94393182,9.61943182 C9.38318182,9.61943182 9.73938636,9.26330682 9.73938636,8.82397727 L9.73938636,4.68482955 L27.0105341,4.68482955 L27.0105341,8.82397727 C27.0105341,9.26330682 27.3667386,9.61943182 27.8059886,9.61943182 C28.2452386,9.61943182 28.6014432,9.26330682 28.6014432,8.82397727 L28.6014432,4.68482955 L32.7727273,4.68482955 C34.0885682,4.68482955 35.1590909,5.75535227 35.1590909,7.07119318 L35.1590909,13.8395568 L1.59090909,13.8395568 L1.59090909,7.07119318 C1.59090909,5.75535227 2.66143182,4.68482955 3.97727273,4.68482955 Z M32.7727273,33.3993068 L3.97727273,33.3993068 C2.66143182,33.3993068 1.59090909,32.3287841 1.59090909,31.0129432 L1.59090909,15.4303864 L35.1590909,15.4303864 L35.1590909,31.0129432 C35.1590909,32.3287841 34.0885682,33.3993068 32.7727273,33.3993068 Z" fill-rule="nonzero"></path>
                        <path d="M23.5309773,19.6295909 L16.8623636,26.0057159 L13.4798523,22.6232045 C13.1691477,22.3126591 12.665625,22.3126591 12.3548409,22.6232045 C12.0442159,22.9338295 12.0442159,23.4375114 12.3548409,23.7482159 L16.2874091,27.6807841 C16.4426023,27.8358977 16.6461591,27.9137727 16.8499545,27.9137727 C17.0477045,27.9137727 17.2456932,27.8404318 17.3996136,27.6932727 L24.6304545,20.7795795 C24.9479205,20.4760341 24.9592955,19.9725114 24.6555909,19.6548864 C24.3520455,19.3371023 23.8485227,19.3260455 23.5309773,19.6295909 Z" fill-rule="nonzero"></path>
                    </g>
                </g>
            </g>
        </g>
    </g>
</svg>