<?xml version="1.0" encoding="UTF-8"?>
<svg width="16px" height="15px" viewBox="0 0 16 15" version="1.1" xmlns="http://www.w3.org/2000/svg" xmlns:xlink="http://www.w3.org/1999/xlink">
    <!-- Generator: sketchtool 52.3 (67297) - http://www.bohemiancoding.com/sketch -->
    <title>D66A6CFE-EEBA-482F-B1E8-0A6E5F79604A</title>
    <desc>Created with sketchtool.</desc>
    <g id="Symbols" stroke="none" stroke-width="1" fill="none" fill-rule="evenodd">
        <g id="menu_active" transform="translate(-278.000000, -33.000000)" fill="#444444" fill-rule="nonzero">
            <g id="Group-6">
                <g id="shopping-cart" transform="translate(278.000000, 33.000000)">
                    <path d="M5.90909091,15 C5.15673656,15 4.54545455,14.3916289 4.54545455,13.6394558 C4.54545455,12.8872827 5.15673656,12.2789116 5.90909091,12.2789116 C6.66144526,12.2789116 7.27272727,12.8872827 7.27272727,13.6394558 C7.27272727,14.3916289 6.66144526,15 5.90909091,15 Z M5.90909091,13.5714286 C5.87398948,13.5714286 5.84415584,13.6011201 5.84415584,13.6394558 C5.84415584,13.6777914 5.87398948,13.707483 5.90909091,13.707483 C5.94419234,13.707483 5.97402597,13.6777914 5.97402597,13.6394558 C5.97402597,13.6011201 5.94419234,13.5714286 5.90909091,13.5714286 Z" id="Oval"></path>
                    <path d="M13.0519481,15 C12.2995937,15 11.6883117,14.3916289 11.6883117,13.6394558 C11.6883117,12.8872827 12.2995937,12.2789116 13.0519481,12.2789116 C13.8043024,12.2789116 14.4155844,12.8872827 14.4155844,13.6394558 C14.4155844,14.3916289 13.8043024,15 13.0519481,15 Z M13.0519481,13.5714286 C13.0168466,13.5714286 12.987013,13.6011201 12.987013,13.6394558 C12.987013,13.6777914 13.0168466,13.707483 13.0519481,13.707483 C13.0870495,13.707483 13.1168831,13.6777914 13.1168831,13.6394558 C13.1168831,13.6011201 13.0870495,13.5714286 13.0519481,13.5714286 Z" id="Oval"></path>
                    <path d="M2.72674934,1.42857143 L0.714285714,1.42857143 C0.319796607,1.42857143 0,1.10877482 0,0.714285714 C0,0.319796607 0.319796607,0 0.714285714,0 L3.31168831,0 C3.65188901,0 3.94487978,0.239934409 4.01195361,0.57345745 L5.75242036,9.22789212 C5.80720034,9.50237886 6.05314536,9.6994218 6.35064935,9.69387755 L12.6759584,9.69400743 C12.9598417,9.6994218 13.2057867,9.50237886 13.2595159,9.23326426 L14.1358511,4.65986395 L8.57142857,4.65986395 C8.17693946,4.65986395 7.85714286,4.34006734 7.85714286,3.94557823 C7.85714286,3.55108912 8.17693946,3.23129252 8.57142857,3.23129252 L15,3.23129252 C15.4483965,3.23129252 15.7859077,3.63961638 15.701523,4.08000104 L14.6615113,9.50748203 C14.4711783,10.4611857 13.6227766,11.1408969 12.6623377,11.122449 L6.36427012,11.1223191 C5.39021041,11.1408969 4.5418087,10.4611857 4.35168276,9.50851534 L2.72674934,1.42857143 Z" id="Shape"></path>
                </g>
            </g>
        </g>
    </g>
</svg>