<?xml version="1.0" encoding="UTF-8"?>
<svg width="45px" height="35px" viewBox="0 0 45 35" version="1.1" xmlns="http://www.w3.org/2000/svg" xmlns:xlink="http://www.w3.org/1999/xlink">
    <!-- Generator: sketchtool 52.3 (67297) - http://www.bohemiancoding.com/sketch -->
    <title>F1D3E82F-F26F-4DEE-A30B-84458962B156</title>
    <desc>Created with sketchtool.</desc>
    <g id="Symbols" stroke="none" stroke-width="1" fill="none" fill-rule="evenodd">
        <g id="reassurance" transform="translate(-1160.000000, -31.000000)" stroke="#FFFFFF">
            <g id="Group-2-Copy-2">
                <g id="icon_enfants" transform="translate(1160.000000, 31.000000)">
                    <g id="Group-3">
                        <g id="teddy" transform="translate(23.000000, 11.000000)" fill="#FFFFFF" fill-rule="nonzero" stroke-width="0.2">
                            <g id="Group">
                                <path d="M19.6440417,10.9903086 C19.184375,10.7730864 18.6675417,10.7421358 18.18775,10.9042716 L16.2160833,11.568716 C17.392375,10.4096296 18.108125,8.89106173 18.108125,7.22938272 C18.108125,6.71174074 18.038125,6.19807407 17.899875,5.69690123 C17.9859167,5.70485185 18.0719583,5.70882716 18.1574167,5.70882716 C19.7090833,5.70882716 20.9717083,4.47960494 20.9717083,2.9687037 C20.9717083,1.45780247 19.7090833,0.228580247 18.1574167,0.228580247 C16.8653333,0.228580247 15.7782917,1.05885185 15.44725,2.22759259 C14.0737917,1.20764198 12.343625,0.651098765 10.5204167,0.651098765 C8.69720833,0.651098765 6.96704167,1.20764198 5.59358333,2.22759259 C5.26254167,1.05885185 4.1755,0.228580247 2.88341667,0.228580247 C1.33175,0.228580247 0.069125,1.45780247 0.069125,2.9687037 C0.069125,4.47960494 1.33175,5.70882716 2.88341667,5.70882716 C2.968875,5.70882716 3.05491667,5.70485185 3.14095833,5.69690123 C3.00270833,6.19807407 2.93270833,6.71174074 2.93270833,7.22938272 C2.93270833,8.79764198 3.57,10.2386914 4.63020833,11.3702346 L2.85279167,10.7713827 C2.373,10.6098148 1.85645833,10.6401975 1.3965,10.8574198 C0.937125,11.0749259 0.592666667,11.4517284 0.426708333,11.9185432 C0.0828333333,12.8862469 0.611625,13.9456667 1.60533333,14.2804444 L4.28283333,15.1825556 C3.9025,15.2461605 3.53908333,15.3742222 3.20804167,15.5738395 C2.4045,16.0579753 1.88475,16.8768889 1.74416667,17.8803704 C1.6065,18.8631235 1.85120833,19.9086296 2.43308333,20.8240864 C3.01495833,21.7395432 3.866625,22.419037 4.83175,22.7379136 C5.22316667,22.8673951 5.61458333,22.931284 5.99404167,22.931284 C6.57066667,22.931284 7.12075,22.7836296 7.60491667,22.4920123 C7.89541667,22.3168148 8.14770833,22.0967531 8.35945833,21.8409136 C9.01483333,22.0286049 9.737,22.1330988 10.520125,22.1330988 C11.30325,22.1330988 12.0254167,22.028321 12.6807917,21.8409136 C12.8925417,22.0964691 13.1448333,22.3168148 13.4353333,22.4920123 C13.9195,22.7836296 14.4695833,22.931284 15.0459167,22.931284 C15.4259583,22.931284 15.817375,22.8671111 16.2085,22.7379136 C17.173625,22.419037 18.0252917,21.7395432 18.6071667,20.8240864 C19.1890417,19.9086296 19.43375,18.8631235 19.2960833,17.8803704 C19.1557917,16.8768889 18.63575,16.0579753 17.8322083,15.5738395 C17.5720417,15.4170988 17.29175,15.306642 16.9995,15.2336667 L19.434625,14.4130494 C20.4283333,14.0782716 20.957125,13.0185679 20.61325,12.0511481 C20.4475833,11.5843333 20.1034167,11.2075309 19.6440417,10.9903086 Z M3.51604167,7.22909877 C3.51604167,6.61690123 3.62425,6.01066667 3.83804167,5.4274321 L4.02675,4.91120988 L3.48483333,5.05858025 C3.283875,5.11309877 3.08145833,5.14092593 2.883125,5.14092593 C1.652875,5.14092593 0.652166667,4.16640741 0.652166667,2.9687037 C0.652166667,1.771 1.65316667,0.796481481 2.883125,0.796481481 C4.02879167,0.796481481 5.004125,1.66622222 5.10416667,2.77675309 L5.15433333,3.33414815 L5.58658333,2.96558025 C6.90870833,1.83914815 8.66075,1.219 10.5198333,1.219 C12.3789167,1.219 14.1309583,1.8394321 15.4530833,2.96558025 L15.8853333,3.33414815 L15.9355,2.77675309 C16.0355417,1.66622222 17.0111667,0.796481481 18.1565417,0.796481481 C19.3867917,0.796481481 20.3875,1.771 20.3875,2.9687037 C20.3875,4.16640741 19.3865,5.14092593 18.1565417,5.14092593 C17.9582083,5.14092593 17.7560833,5.11309877 17.5548333,5.05858025 L17.0129167,4.91120988 L17.201625,5.4274321 C17.4154167,6.01095062 17.523625,6.61690123 17.523625,7.22909877 C17.523625,10.5430864 14.3817917,13.2394815 10.51925,13.2394815 C6.65670833,13.2394815 3.51604167,10.5433704 3.51604167,7.22909877 Z M1.79608333,13.7440617 C1.10629167,13.5115062 0.739375,12.7760741 0.977958333,12.1045309 C1.09316667,11.7808272 1.33204167,11.5193086 1.65141667,11.3685309 C1.83575,11.281358 2.0335,11.2373457 2.23154167,11.2373457 C2.3765,11.2373457 2.52145833,11.2609136 2.66204167,11.3083333 L5.77470833,12.356963 C6.02991667,12.535 6.29795833,12.6996914 6.57854167,12.8484815 C5.95408333,13.4055926 5.44804167,14.0884938 5.11116667,14.8616914 L1.79608333,13.7440617 Z M8.49041667,20.1090988 C8.37404167,20.941358 7.95025,21.6163086 7.29779167,22.0090123 C6.64504167,22.402 5.83566667,22.4698642 5.019,22.2001111 C4.18191667,21.9235432 3.43991667,21.3289506 2.92920833,20.5253704 C2.41820833,19.7217901 2.20295833,18.8097407 2.32225,17.957321 C2.43833333,17.1250617 2.86241667,16.4501111 3.514875,16.0571235 C3.90454167,15.8222963 4.35020833,15.7036049 4.820375,15.7036049 C5.137125,15.7036049 5.46466667,15.7575556 5.79366667,15.8660247 C6.63075,16.1425926 7.37275,16.7374691 7.88345833,17.5410494 C8.39416667,18.3443457 8.61,19.256679 8.49041667,20.1090988 Z M10.520125,21.5657654 C9.90179167,21.5657654 9.28375,21.4873951 8.6975,21.3329259 C8.88154167,20.9893457 9.009875,20.6051605 9.0685,20.1860494 C9.20616667,19.2032963 8.96145833,18.1575062 8.37958333,17.2423333 C7.79770833,16.3271605 6.94604167,15.6473827 5.98091667,15.3285062 C5.85170833,15.2859136 5.72279167,15.2509877 5.593875,15.2225926 C5.924625,14.398 6.458375,13.6739259 7.13970833,13.115963 C8.1585,13.5575062 9.30620833,13.8073827 10.5204167,13.8073827 C11.734625,13.8073827 12.8823333,13.5575062 13.901125,13.115963 C14.5821667,13.6739259 15.1162083,14.397716 15.4469583,15.2225926 C15.3183333,15.2509877 15.189125,15.2859136 15.0599167,15.3285062 C14.0947917,15.6473827 13.243125,16.3268765 12.66125,17.2423333 C12.079375,18.1577901 11.8346667,19.2032963 11.9723333,20.1860494 C12.0309583,20.6048765 12.1592917,20.9890617 12.3433333,21.3329259 C11.7567917,21.4873951 11.1384583,21.5657654 10.520125,21.5657654 Z M17.5256667,16.0571235 C18.178125,16.4501111 18.6019167,17.1250617 18.7182917,17.957321 C18.8375833,18.8097407 18.6223333,19.7220741 18.1113333,20.5253704 C17.600625,21.3289506 16.8583333,21.9238272 16.0215417,22.2001111 C15.2045833,22.4698642 14.3949167,22.402 13.74275,22.0090123 C13.0902917,21.6160247 12.6667917,20.941358 12.550125,20.1090988 C12.4308333,19.256679 12.646375,18.3443457 13.157375,17.5410494 C13.6680833,16.7374691 14.4100833,16.1425926 15.2471667,15.8660247 C15.5761667,15.7572716 15.9037083,15.7036049 16.2204583,15.7036049 C16.6903333,15.7036049 17.136,15.8222963 17.5256667,16.0571235 Z M19.2441667,13.8766667 L15.9751667,14.9781111 C15.6391667,14.1577778 15.1170833,13.4328519 14.4617083,12.8479136 C14.590625,12.7797654 14.71575,12.707358 14.8394167,12.632963 L18.3782083,11.4406543 C18.711,11.3284938 19.0700417,11.3500741 19.3888333,11.5008519 C19.7082083,11.6519136 19.9470833,11.9134321 20.0622917,12.2371358 C20.3011667,12.908679 19.93425,13.6441111 19.2441667,13.8766667 Z" id="Shape"></path>
                                <path d="M10.520125,11.816037 C12.635875,11.816037 14.3572917,10.557 14.3572917,9.00946914 C14.3572917,7.46193827 12.635875,6.20290123 10.520125,6.20290123 C8.404375,6.20290123 6.68295833,7.46193827 6.68295833,9.00946914 C6.68295833,10.557 8.404375,11.816037 10.520125,11.816037 Z M10.520125,6.77080247 C12.3141667,6.77080247 13.7739583,7.7751358 13.7739583,9.00946914 C13.7739583,10.1762222 12.469625,11.1359753 10.8117917,11.2379136 L10.8117917,9.42630864 L10.9975833,9.42630864 C11.496625,9.42630864 11.9029167,9.03076543 11.9029167,8.54492593 C11.9029167,8.05908642 11.496625,7.66354321 10.9975833,7.66354321 L10.0429583,7.66354321 C9.54391667,7.66354321 9.137625,8.05908642 9.137625,8.54492593 C9.137625,9.03076543 9.54391667,9.42630864 10.0429583,9.42630864 L10.22875,9.42630864 L10.22875,11.2379136 C8.57091667,11.1359753 7.26658333,10.1762222 7.26658333,9.00946914 C7.26629167,7.7751358 8.72608333,6.77080247 10.520125,6.77080247 Z M10.0429583,8.85840741 C9.865625,8.85840741 9.72095833,8.71785185 9.72095833,8.54492593 C9.72095833,8.372 9.86533333,8.23144444 10.0429583,8.23144444 L10.9975833,8.23144444 C11.1749167,8.23144444 11.3195833,8.372 11.3195833,8.54492593 C11.3195833,8.71785185 11.1752083,8.85840741 10.9975833,8.85840741 L10.0429583,8.85840741 Z" id="Shape"></path>
                                <ellipse id="Oval" cx="7.92925" cy="6.15491358" rx="1" ry="1"></ellipse>
                                <ellipse id="Oval" cx="13.1112917" cy="6.15491358" rx="1" ry="1"></ellipse>
                                <path d="M3.087875,1.68893827 C2.32545833,1.68893827 1.705375,2.29261728 1.705375,3.03514815 C1.705375,3.77739506 2.32545833,4.38107407 3.087875,4.38107407 C3.85029167,4.38107407 4.47066667,3.77739506 4.47066667,3.03514815 C4.47066667,2.29290123 3.85029167,1.68893827 3.087875,1.68893827 Z M3.087875,3.81317284 C2.64716667,3.81317284 2.28870833,3.46419753 2.28870833,3.03514815 C2.28870833,2.60609877 2.64716667,2.25683951 3.087875,2.25683951 C3.528875,2.25683951 3.88733333,2.60581481 3.88733333,3.03514815 C3.88733333,3.46419753 3.528875,3.81317284 3.087875,3.81317284 Z" id="Shape"></path>
                                <path d="M17.9526667,4.38107407 C18.7150833,4.38107407 19.3351667,3.77739506 19.3351667,3.03514815 C19.3351667,2.29290123 18.7150833,1.68893827 17.9526667,1.68893827 C17.19025,1.68893827 16.569875,2.29261728 16.569875,3.03514815 C16.569875,3.77739506 17.19025,4.38107407 17.9526667,4.38107407 Z M17.9526667,2.25683951 C18.393375,2.25683951 18.7518333,2.60581481 18.7518333,3.03514815 C18.7518333,3.46419753 18.393375,3.81317284 17.9526667,3.81317284 C17.5116667,3.81317284 17.1532083,3.46419753 17.1532083,3.03514815 C17.1532083,2.60609877 17.5116667,2.25683951 17.9526667,2.25683951 Z" id="Shape"></path>
                                <path d="M4.414375,17.267321 C4.13583333,17.267321 3.88325,17.3343333 3.66304167,17.4669383 C2.79095833,17.9925309 2.68158333,19.3637284 3.418625,20.5242346 C3.94041667,21.3448519 4.79120833,21.8752716 5.58629167,21.8752716 C5.86483333,21.8752716 6.11770833,21.8082593 6.33791667,21.6759383 C6.85066667,21.367 6.99854167,20.8124444 7.041125,20.5091852 C7.126,19.900679 6.958875,19.2118148 6.58204167,18.618642 C6.05995833,17.7974568 5.20916667,17.267321 4.414375,17.267321 Z M6.46275,20.4319506 C6.43416667,20.6361111 6.33995833,21.0060988 6.03108333,21.1923704 C5.9045,21.2684691 5.75516667,21.3068025 5.58629167,21.3068025 C4.98866667,21.3068025 4.33241667,20.8820123 3.91504167,20.2246667 C3.366125,19.3608889 3.39208333,18.2977778 3.969875,17.9493704 C4.09645833,17.8732716 4.24579167,17.8349383 4.414375,17.8349383 C5.012,17.8349383 5.66825,18.2597284 6.085625,18.9167901 C6.39245833,19.3997901 6.530125,19.9520741 6.46275,20.4319506 Z" id="Shape"></path>
                                <path d="M14.601125,18.6047284 C14.2242917,19.1976173 14.0571667,19.8867654 14.1423333,20.4947037 C14.184625,20.797679 14.3319167,21.3522346 14.8455417,21.6617407 C15.0654583,21.7940617 15.3180417,21.8610741 15.596875,21.8610741 L15.5971667,21.8610741 C16.39225,21.8610741 17.2430417,21.3309383 17.7648333,20.510321 C18.501875,19.3498148 18.3922083,17.9783333 17.5207083,17.4530247 C17.3007917,17.3207037 17.0482083,17.2536914 16.7690833,17.2536914 C15.974,17.2534074 15.1229167,17.7838272 14.601125,18.6047284 Z M16.7687917,17.8213086 C16.9376667,17.8213086 17.0872917,17.8599259 17.2132917,17.9357407 C17.791375,18.2838642 17.8170417,19.3472593 17.268125,20.211321 C16.8504583,20.8683827 16.1942083,21.2931728 15.5965833,21.2931728 C15.428,21.2931728 15.278375,21.2545556 15.152375,21.1787407 C14.8423333,20.9921852 14.7484167,20.6224815 14.7204167,20.418321 C14.6530417,19.9384444 14.7904167,19.3864444 15.09725,18.9037284 C15.5149167,18.2460988 16.1711667,17.8213086 16.7687917,17.8213086 Z" id="Shape"></path>
                            </g>
                        </g>
                        <path d="M7.05099921,14.136303 L7.19262355,14.0117175 L6.86237527,14.136303 L7.05099921,14.136303 Z M9.01549498,14.136303 L16.0683856,14.136303 L12.5425105,13.4114481 L9.01549498,14.136303 Z M17.9507402,14.136303 L18.1393641,14.136303 L17.8091158,14.0117175 L17.9507402,14.136303 Z" id="Shape" fill-rule="nonzero"></path>
                    </g>
                </g>
            </g>
        </g>
    </g>
</svg>