<?xml version="1.0" encoding="UTF-8"?>
<svg width="21px" height="21px" viewBox="0 0 21 21" version="1.1" xmlns="http://www.w3.org/2000/svg" xmlns:xlink="http://www.w3.org/1999/xlink">
    <!-- Generator: sketchtool 52.3 (67297) - http://www.bohemiancoding.com/sketch -->
    <title>2F64DD9A-7C6A-407A-949B-79286539CABD</title>
    <desc>Created with sketchtool.</desc>
    <g id="UI-1" stroke="none" stroke-width="1" fill="none" fill-rule="evenodd">
        <g id="3_Produit_1" transform="translate(-77.000000, -792.000000)" fill="#28AFB0">
            <g id="Group-2" transform="translate(78.000000, 702.000000)">
                <g id="Group-16" transform="translate(0.000000, 89.000000)">
                    <g id="icon_compris" transform="translate(0.000000, 2.000000)">
                        <g>
                            <path d="M9.5,20 C3.70101013,20 -1,15.2989899 -1,9.5 C-1,3.70101013 3.70101013,-1 9.5,-1 C15.2989899,-1 20,3.70101013 20,9.5 C20,15.2989899 15.2989899,20 9.5,20 Z M9.5,18 C14.1944204,18 18,14.1944204 18,9.5 C18,4.80557963 14.1944204,1 9.5,1 C4.80557963,1 1,4.80557963 1,9.5 C1,14.1944204 4.80557963,18 9.5,18 Z" id="Oval" fill-rule="nonzero"></path>
                            <path d="M7.77272727,11.5403319 L13.9747114,5.33834776 C14.3652357,4.94782347 14.9984007,4.94782347 15.388925,5.33834776 C15.7794493,5.72887206 15.7794493,6.36203703 15.388925,6.75256133 L8.47983405,13.6616522 C8.08930976,14.0521765 7.45614478,14.0521765 7.06562049,13.6616522 L3.61107504,10.2071068 C3.22055075,9.81658249 3.22055075,9.18341751 3.61107504,8.79289322 C4.00159933,8.40236893 4.63476431,8.40236893 5.0252886,8.79289322 L7.77272727,11.5403319 Z" id="Shape" fill-rule="nonzero"></path>
                        </g>
                    </g>
                </g>
            </g>
        </g>
    </g>
</svg>