<?xml version="1.0" encoding="UTF-8"?>
<svg width="20px" height="19px" viewBox="0 0 20 19" version="1.1" xmlns="http://www.w3.org/2000/svg" xmlns:xlink="http://www.w3.org/1999/xlink">
    <!-- Generator: sketchtool 52.3 (67297) - http://www.bohemiancoding.com/sketch -->
    <title>1BD1ABD8-5594-4B14-885A-49011424EB3A</title>
    <desc>Created with sketchtool.</desc>
    <g id="Symbols" stroke="none" stroke-width="1" fill="none" fill-rule="evenodd">
        <g id="coupsdecoeur" transform="translate(-70.000000, -211.000000)" fill="#276FBF" fill-rule="nonzero">
            <g id="Group-3" transform="translate(70.000000, 97.000000)">
                <g id="Group-15">
                    <path d="M19.152815,123.717903 C19.1301758,123.559428 19.1075365,123.310396 18.9717009,123.038725 C18.8585046,122.744415 18.6547513,122.404826 18.3378016,122.065237 C18.020852,121.748287 17.590706,121.431338 17.070003,121.204945 C16.5493,120.978552 15.9380399,120.842717 15.2815013,120.842717 C14.6249628,120.842717 13.9231457,120.955913 13.2213286,121.250223 C13.0402145,121.318141 12.8817396,121.408698 12.7006256,121.521895 C12.5195115,121.635091 12.3836759,121.725648 12.1799225,121.884123 C12.0667262,121.97468 12.044087,122.019958 11.9761692,122.065237 L11.9308907,122.110515 L11.9082514,122.133155 L11.8629729,122.155794 L11.7724158,122.26899 C11.6365803,122.404826 11.5007447,122.563301 11.3875484,122.699136 C10.9121239,123.310396 10.572535,124.057492 10.4366994,124.827227 C10.3687817,125.121537 10.3461424,125.415847 10.3235031,125.710158 L10.0291927,125.710158 C10.0291927,125.574322 10.051832,125.438487 10.0744713,125.280012 C10.142389,124.691391 10.2555853,124.080131 10.4140602,123.468871 C10.572535,122.857611 10.7536491,122.246351 10.9121239,121.65773 C10.9800417,121.36342 11.0479595,121.069109 11.093238,120.774799 C11.1385165,120.480489 11.1837951,120.186178 11.2064343,119.914507 C11.2743521,119.348525 11.2969914,118.805183 11.2517128,118.28448 C11.2290736,118.035448 11.1837951,117.763777 11.1385165,117.514745 C10.9121239,116.4507 10.3008639,115.613047 9.89335716,114.61692 L9.64432529,114.050938 C9.62168603,113.983021 9.53112898,113.983021 9.48585046,114.050938 C9.48585046,114.050938 9.23681859,114.61692 9.23681859,114.61692 C8.80667262,115.613047 8.21805183,116.4507 7.99165922,117.514745 C7.9463807,117.763777 7.90110217,118.012809 7.87846291,118.28448 C7.83318439,118.805183 7.85582365,119.348525 7.92374144,119.914507 C7.9463807,120.208817 7.99165922,120.480489 8.03693774,120.774799 C8.08221626,121.069109 8.15013405,121.36342 8.21805183,121.65773 C8.37652666,122.246351 8.55764075,122.857611 8.71611558,123.468871 C8.87459041,124.080131 8.98778671,124.691391 9.0557045,125.280012 C9.07834376,125.415847 9.07834376,125.574322 9.10098302,125.710158 L8.80667262,125.710158 C8.80667262,125.415847 8.7613941,125.121537 8.69347632,124.827227 C8.53500149,124.057492 8.21805183,123.310396 7.74262735,122.699136 C7.62943104,122.540661 7.49359547,122.404826 7.3577599,122.26899 L7.28984212,122.155794 L7.2445636,122.110515 L7.22192434,122.087876 L7.17664581,122.042598 C7.10872803,121.997319 7.08608877,121.952041 6.97289246,121.861483 C6.79177837,121.703009 6.63330354,121.612452 6.45218945,121.499255 C6.29371463,121.408698 6.11260054,121.318141 5.93148645,121.227584 C5.22966935,120.933274 4.52785225,120.820077 3.87131367,120.820077 C3.2147751,120.820077 2.60351504,120.955913 2.08281203,121.182306 C1.56210903,121.408698 1.13196306,121.703009 0.815013405,122.042598 C0.498063747,122.382186 0.294310396,122.721775 0.18111409,123.016086 C0.0679177837,123.310396 0,123.604707 0,123.921656 C0,123.944296 0,123.944296 0,123.966935 C0.0226392612,124.034853 0.113196306,123.944296 0.135835567,123.921656 C0.158474829,123.899017 0.203753351,123.853738 0.226392612,123.831099 C0.271671135,123.785821 0.339588919,123.717903 0.430145964,123.649985 C0.520703009,123.582067 0.611260054,123.51415 0.72445636,123.446232 C1.15460232,123.174561 1.78850164,122.925529 2.53559726,122.88025 C2.9204647,122.857611 3.3279714,122.88025 3.71283884,122.970807 C4.12034555,123.038725 4.52785225,123.1972 4.86744117,123.400953 C4.95799821,123.446232 5.04855526,123.51415 5.11647304,123.559428 C5.18439083,123.604707 5.27494787,123.695264 5.32022639,123.717903 C5.34286565,123.717903 5.41078344,123.785821 5.45606196,123.831099 C5.45606196,123.831099 5.50134048,123.876378 5.50134048,123.876378 C5.47870122,123.853738 5.47870122,123.853738 5.50134048,123.876378 L5.54661901,123.944296 C5.61453679,124.034853 5.68245457,124.10277 5.75037236,124.193327 C6.02204349,124.532916 6.2484361,124.940423 6.38427167,125.370569 C6.42955019,125.483765 6.45218945,125.596962 6.47482872,125.710158 C6.1352398,125.755436 5.88620792,126.027108 5.88620792,126.366696 C5.88620792,126.728925 6.15787906,127.000596 6.49746798,127.045874 C6.42955019,127.408102 6.31635389,127.770331 6.15787906,128.08728 C6.11260054,128.200477 6.04468275,128.291034 5.99940423,128.381591 C5.93148645,128.472148 5.90884718,128.540066 5.79565088,128.653262 C5.65981531,128.834376 5.52397974,128.992851 5.36550492,129.128686 C5.07119452,129.400357 4.70896634,129.604111 4.34673816,129.694668 C3.98450998,129.807864 3.59964254,129.807864 3.26005362,129.762586 C2.9204647,129.717307 2.64879357,129.604111 2.42240095,129.490915 C2.2186476,129.377718 2.06017277,129.219243 1.99225499,129.106047 C1.92433721,128.992851 1.90169794,128.902294 1.90169794,128.924933 L1.85641942,128.947572 C1.85641942,128.947572 1.83378016,129.01549 1.87905868,129.196604 C1.90169794,129.355079 1.99225499,129.581472 2.17336908,129.830503 C2.35448317,130.079535 2.64879357,130.328567 3.03366101,130.509681 C3.41852845,130.713435 3.89395293,130.84927 4.45993447,130.871909 C5.025916,130.894549 5.63717605,130.781352 6.2484361,130.464403 C6.5427465,130.305928 6.8370569,130.102175 7.08608877,129.875782 C7.17664581,129.807864 7.33512064,129.649389 7.44831695,129.513554 C7.56151326,129.377718 7.67470956,129.241883 7.78790587,129.106047 C8.21805183,128.540066 8.53500149,127.860888 8.69347632,127.113792 C8.69347632,127.091153 8.69347632,127.068514 8.71611558,127.045874 L9.10098302,127.045874 C8.98778671,127.860888 8.69347632,128.630623 8.19541257,129.422997 C8.08221626,129.604111 7.85582365,129.898421 7.71998808,130.034257 C7.67470956,130.079535 7.67470956,130.170092 7.71998808,130.215371 L9.4632112,132.932082 C9.53112898,133.022639 9.66696455,133.022639 9.73488234,132.932082 L11.4781055,130.215371 C11.523384,130.147453 11.523384,130.079535 11.4781055,130.034257 C11.3649091,129.875782 11.1158773,129.604111 11.002681,129.422997 C10.481978,128.630623 10.2103068,127.860888 10.0971105,127.045874 L10.481978,127.045874 C10.481978,127.068514 10.481978,127.091153 10.5046172,127.113792 C10.6857313,127.860888 11.002681,128.540066 11.4101877,129.106047 C11.523384,129.241883 11.6365803,129.377718 11.7497766,129.513554 C11.8629729,129.62675 12.0214477,129.785225 12.1120048,129.875782 C12.3610366,130.102175 12.655347,130.305928 12.9496574,130.464403 C13.5382782,130.758713 14.1721775,130.894549 14.7381591,130.871909 C15.3041406,130.84927 15.7795651,130.690795 16.1644325,130.509681 C16.5493,130.305928 16.8436104,130.056896 17.0247245,129.830503 C17.2058385,129.581472 17.2963956,129.355079 17.3190349,129.196604 C17.3416741,129.038129 17.3190349,128.970211 17.3416741,128.947572 L17.2737563,128.924933 C17.2737563,128.924933 17.2511171,129.01549 17.1831993,129.106047 C17.1152815,129.219243 16.9568067,129.355079 16.7530533,129.490915 C16.5266607,129.604111 16.2549896,129.717307 15.9154007,129.762586 C15.5758117,129.807864 15.2135836,129.807864 14.8287161,129.694668 C14.4664879,129.604111 14.1042598,129.422997 13.8099494,129.128686 C13.6514745,128.992851 13.515639,128.834376 13.3798034,128.653262 C13.2666071,128.517426 13.2439678,128.472148 13.17605,128.381591 C13.1081323,128.291034 13.0628537,128.177837 13.0175752,128.08728 C12.8591004,127.770331 12.7232648,127.408102 12.6779863,127.045874 C13.0402145,127.023235 13.3118856,126.728925 13.3118856,126.366696 C13.3118856,126.027108 13.0402145,125.732797 12.7006256,125.687519 C12.7232648,125.574322 12.7459041,125.461126 12.7911826,125.370569 C12.9270182,124.940423 13.1534108,124.532916 13.4250819,124.193327 C13.4929997,124.10277 13.5609175,124.012213 13.6288353,123.944296 L13.6741138,123.876378 C13.6741138,123.876378 13.6741138,123.876378 13.6741138,123.853738 C13.6967531,123.831099 13.6741138,123.853738 13.6741138,123.853738 L13.7193923,123.80846 C13.7646708,123.763181 13.8325886,123.695264 13.8552279,123.695264 C13.9005064,123.649985 13.9910634,123.582067 14.0589812,123.536789 C14.1495383,123.468871 14.2174561,123.423592 14.3080131,123.378314 C14.647602,123.174561 15.0551087,123.016086 15.4626154,122.948168 C15.8701221,122.857611 16.2776288,122.834972 16.639857,122.857611 C17.3869526,122.902889 18.020852,123.151921 18.4509979,123.423592 C18.5641942,123.49151 18.6547513,123.559428 18.722669,123.627346 C18.8132261,123.695264 18.8811439,123.763181 18.9264224,123.80846 C18.9490617,123.831099 18.9943402,123.876378 19.0169794,123.899017 C19.0396187,123.921656 19.062258,123.966935 19.1075365,123.966935 C19.1301758,123.966935 19.1301758,123.944296 19.152815,123.944296 C19.1754543,123.921656 19.152815,123.876378 19.152815,123.853738 C19.152815,123.80846 19.152815,123.763181 19.152815,123.717903 Z" id="icon_lys"></path>
                </g>
            </g>
        </g>
    </g>
</svg>