<?xml version="1.0" encoding="UTF-8"?>
<svg width="175px" height="205px" viewBox="0 0 175 205" version="1.1" xmlns="http://www.w3.org/2000/svg" xmlns:xlink="http://www.w3.org/1999/xlink">
    <!-- Generator: sketchtool 52.3 (67297) - http://www.bohemiancoding.com/sketch -->
    <title>843AA26E-4759-47D9-8BD5-4B90C3B1576C</title>
    <desc>Created with sketchtool.</desc>
    <g id="UI-1" stroke="none" stroke-width="1" fill="none" fill-rule="evenodd">
        <g id="1_Home" transform="translate(0.000000, -1356.000000)" fill="#CDCFCD">
            <g id="Group-5" transform="translate(-49.000000, 1314.000000)">
                <g id="salamandre" transform="translate(0.000000, 43.000000)">
                    <g transform="translate(111.500000, 101.500000) scale(-1, 1) translate(-111.500000, -101.500000) translate(-1.000000, -1.000000)">
                        <path d="M102.892093,38.6593068 C101.524796,37.2920095 101.523068,35.080521 102.889547,33.7056427 C104.254598,32.3461863 106.467518,32.3479179 107.834479,33.7092723 C108.495514,34.374388 108.848127,35.2567601 108.854377,36.1575932 C114.626938,38.2879658 119.980349,38.6668379 122.862093,35.7850932 C125.767925,32.8792613 123.524176,26.5264424 119.075573,19.9173151 C117.94843,20.154515 116.741952,19.8191651 115.888093,18.9653068 C114.523569,17.6007825 114.523569,15.3876175 115.889547,14.0216427 C117.255979,12.6608107 119.470024,12.6608107 120.831401,14.0221884 C121.686086,14.8746872 122.018705,16.0807255 121.783449,17.211506 C128.419751,21.6679466 134.7469,23.9035922 137.651926,20.9972606 C140.534479,18.113343 140.155193,12.7752527 138.022527,6.99015388 C137.121353,6.98408999 136.240075,6.62928771 135.57464,5.96385034 C134.216053,4.59966156 134.216053,2.38873844 135.577547,1.02164275 C136.943857,-0.339068269 139.155343,-0.339068269 140.520307,1.02309322 C141.588263,2.09104918 141.827776,3.68940178 141.20453,4.9959495 L149.857353,17.651904 L150.71669,17.5285732 L156.617771,26.0349181 L154.187084,25.5487807 C152.690419,25.2494477 151.204395,25.0962 149.7312,25.0962 C143.281438,25.0962 137.113002,27.8442645 132.803145,32.6404413 C127.952346,38.0407733 126.052837,45.3363337 127.475322,52.3638058 L127.968726,54.8013588 L119.390468,48.8509574 L119.515747,47.9899141 L106.858434,39.3448138 C105.554448,39.9640162 103.956195,39.7234085 102.892093,38.6593068 Z M107.220691,37.6737909 L106.58181,37.4236449 L106.805434,36.5643477 C106.939088,36.0507702 106.796332,35.5018875 106.419553,35.1227632 C105.836106,34.5417178 104.885031,34.5409736 104.304475,35.1191322 C103.718099,35.7091205 103.71884,36.6576263 104.306307,37.2450932 C104.838742,37.7775286 105.688393,37.8265955 106.275807,37.3679798 L106.8912,38.1562 L107.220691,37.6737909 Z M121.674653,47.0424859 L121.547932,47.9134426 L125.154138,50.4149266 C124.424121,43.522167 126.574788,36.5814603 131.315389,31.3038096 C136.00483,26.0852179 142.714121,23.0962 149.7312,23.0962 C150.564187,23.0962 151.399698,23.1409676 152.237277,23.229267 L149.77771,19.6838268 L148.909047,19.808496 L140.152165,7.00034047 C142.323179,13.2120006 142.582491,18.8934578 139.066466,22.4111478 C136.721186,24.7574816 133.117661,24.7685814 128.711997,23.1280902 C126.064268,22.142183 123.366691,20.6598363 120.871013,19.006025 C122.520143,21.4905065 124.007686,24.1969946 124.99337,26.8448283 C126.633165,31.2497908 126.621714,34.8538992 124.276307,37.1993068 C120.758186,40.7174279 115.05458,40.455359 108.847777,38.2815722 L121.674653,47.0424859 Z M119.699625,17.1672891 C119.984628,16.5935972 119.877406,15.8954462 119.418093,15.4373068 C118.836376,14.8555893 117.886421,14.8555893 117.302307,15.4373068 C116.718831,16.0207825 116.718831,16.9676175 117.302307,17.5510932 C117.762666,18.0114529 118.458969,18.1195294 119.020625,17.8344737 L119.485348,17.5986142 L119.699625,17.1672891 Z M139.227322,4.41236876 C139.690042,3.82037743 139.641871,2.97308502 139.10682,2.43803314 C138.523057,1.85546827 137.574543,1.85546827 136.99176,2.43585034 C136.410347,3.01966156 136.410347,3.96873844 136.990307,4.55109322 C137.371937,4.93272388 137.915457,5.07508209 138.427737,4.94085492 L138.913784,4.81350137 L139.227322,4.41236876 Z" id="Fill-1" fill-rule="nonzero"></path>
                        <g id="Group-5" transform="translate(0.000000, 26.464000)" fill-rule="nonzero">
                            <path d="M224.406297,46.3018639 C225.33222,47.5334214 224.917633,49.6417701 223.165679,52.0712906 C220.979228,55.0986844 219.992498,56.0113741 218.401029,56.8925798 C218.328494,56.9327428 218.275344,56.9626178 218.224793,56.9918052 C217.964286,57.1422175 217.776546,57.2752847 217.5621,57.4715267 C217.460539,57.5644658 217.336214,57.6775599 217.09345,57.8983344 C216.893153,58.080761 216.73716,58.2238677 216.581323,58.3686293 C216.175588,58.7455301 215.823282,59.0858715 215.489636,59.427155 C214.282746,60.6616739 213.437508,61.7970728 212.996758,62.8779157 C211.759234,65.9078048 202.078766,72.0978647 194.35482,74.5212445 C194.206753,74.5690459 193.971962,74.6446829 193.58853,74.7682499 C193.569002,74.7745498 193.54974,74.7807657 193.530728,74.7869025 C193.683638,80.1347855 193.417898,85.4923825 192.738863,90.7931077 C191.474674,100.642497 188.767027,110.268722 184.729778,119.286256 C180.715804,128.256299 175.367067,136.617661 168.941562,143.987722 C167.792582,145.317048 166.578328,146.640293 165.282781,147.979768 C169.861507,148.843583 173.046613,149.269444 174.488535,149.153043 L174.657408,149.153716 C174.675891,149.155356 174.720708,149.158543 174.787775,149.161954 C175.259839,149.185968 175.794683,149.170086 176.280284,149.087407 C176.812589,148.996776 177.169656,148.838652 177.286421,148.684423 C177.382562,148.557434 177.364766,148.282606 177.006553,147.668524 C176.811284,147.332754 176.598384,146.983877 176.358999,146.605249 C176.058534,146.130013 175.083812,144.64422 175.037075,144.571717 C174.548827,143.814295 174.268369,143.330174 174.10233,142.917466 C173.74286,142.02397 173.868474,141.110359 174.962085,140.911689 C175.383706,140.835096 175.86378,140.936075 176.529366,141.205046 C176.842993,140.951699 177.162066,140.698934 177.4704,140.461456 C177.564767,140.388923 177.564767,140.388923 177.65979,140.316531 C178.193175,139.911158 178.587804,139.625595 178.908354,139.437604 C178.973567,139.18266 179.045747,138.903756 179.123762,138.606274 C179.378165,137.636209 179.642672,136.665898 179.90408,135.758617 C180.01962,135.357604 180.132253,134.977089 180.241358,134.620138 C180.593872,133.466846 180.898539,132.592598 181.154982,132.036869 C182.640587,128.816874 185.798202,130.454378 185.422258,134.283071 C185.406949,134.439712 185.389768,134.601124 185.37055,134.769882 C185.331517,135.112632 185.29038,135.436347 185.22152,135.954738 C184.817952,138.992868 184.88001,139.900896 185.319018,140.013045 C186.529121,140.322852 187.629843,139.640596 188.437319,138.06734 C189.249974,136.500694 190.049329,135.201734 190.975622,134.151007 C192.500132,132.421702 194.143868,131.747445 195.70359,132.867034 C197.17571,133.922247 197.087079,135.452552 196.01467,137.090087 C195.705201,137.562638 195.325806,138.038255 194.823105,138.607684 C194.620179,138.837546 193.972359,139.549498 193.884634,139.647973 C193.596172,139.971786 193.422047,140.187402 193.335156,140.328331 C193.274362,140.426491 192.741999,141.244654 192.576585,141.516592 C192.116139,142.27356 191.83163,142.899084 191.725979,143.451246 C191.598568,144.11713 191.742056,144.59584 192.25107,145.022834 C193.605975,146.163608 196.726737,145.530733 199.279639,144.036562 C200.525751,143.314503 201.832221,142.760639 202.969038,142.556537 C204.68872,142.247789 206.066601,142.755853 206.57246,144.308027 C207.170957,146.158239 205.850742,147.493918 203.205439,148.937327 C202.809862,149.153173 201.015432,150.058887 200.737907,150.229723 C200.931821,150.109506 198.805611,151.37026 198.103717,151.832679 C196.991515,152.565416 196.184574,153.230004 195.753605,153.802322 C195.506536,154.130425 195.437536,154.346536 195.468533,154.463057 C195.570341,154.852787 196.777492,155.442806 198.287181,155.620939 C199.846106,155.804883 201.105517,155.49365 201.339723,155.020291 C202.240068,153.210992 204.554478,153.374575 204.704329,155.330927 C204.821995,156.867088 203.339773,158.421068 200.558963,159.526847 C197.170004,160.876389 195.746822,161.149996 194.051933,161.045569 C193.95786,161.039754 193.95786,161.039754 193.869612,161.034668 C193.494525,161.013925 193.25673,161.022102 192.933938,161.079082 C190.654873,161.47448 190.256497,161.551971 189.182433,161.860106 C187.95023,162.213609 186.943337,162.650567 186.179345,163.195006 C183.504581,165.081419 172.013637,165.105888 164.197994,163.001676 C163.44522,162.799814 162.679271,162.601964 161.546653,162.314663 C161.342733,162.262936 160.518704,162.05432 160.311025,162.001639 C156.200333,160.958901 153.931042,160.308011 151.94443,159.511413 C150.318919,160.685105 148.660284,161.806701 146.97541,162.871025 C138.833253,168.019061 129.946053,171.95037 120.706156,174.500005 C111.521871,177.025684 101.995759,178.196542 92.519024,177.973513 C83.0886614,177.747345 73.7296238,176.144791 64.8301561,173.234261 C55.9366147,170.325669 47.5117171,166.117308 39.9326069,160.797779 C32.4043909,155.542648 25.6609931,149.160987 19.9430796,141.916661 C14.2760729,134.761309 9.682701,126.774658 6.35985597,118.312452 C3.06434925,109.89732 1.02032625,101.039376 0.298272919,92.0806401 C-0.422803853,83.1900455 0.167427233,74.217614 2.03514412,65.5185206 C3.88479399,56.8760518 7.00564304,48.533851 11.2581243,40.8534525 C15.4649269,33.2547145 20.8302872,26.2460109 27.035335,20.2166277 L27.0838192,20.1609046 C29.0785753,18.2210043 32.2724245,18.2712099 34.2084553,20.2671955 C36.0318837,22.1452027 36.1008449,25.1188674 34.3911876,27.082459 C29.3339023,32.8908652 25.1966307,39.3485849 22.0709849,46.2940237 C18.9771287,53.1721009 16.9140179,60.4922535 15.9608038,67.9435703 C15.0077145,75.3418271 15.1423919,82.8538325 16.3536027,90.1626589 C17.5536049,97.4197212 19.8166501,104.470112 23.0423905,111.024563 C26.2330928,117.513828 30.3872955,123.507037 35.3332891,128.778662 C40.2554199,134.040522 45.897678,138.54555 52.0118822,142.093445 C58.1062479,145.639151 64.6995574,148.264117 71.5146218,149.86452 C78.3031797,151.466115 85.2986535,152.064117 92.1817094,151.63368 C99.0502341,151.211911 105.820309,149.791278 112.183953,147.437952 C116.414333,145.872518 120.467388,143.901177 124.272273,141.559487 C124.199638,141.512971 124.125642,141.465537 124.050137,141.417094 C123.833998,141.27842 123.609547,141.134086 123.332126,140.955441 C121.27368,139.629908 121.029734,139.473532 120.214492,138.962729 C113.339315,134.682529 105.52307,126.258778 105.087827,123.012372 C105.056456,122.777829 105.009017,122.535009 104.945893,122.284202 C104.668566,121.182328 104.111636,119.986564 103.296838,118.626754 C103.093548,118.287484 102.879487,117.946195 102.629397,117.559399 C102.485659,117.337091 102.030313,116.64269 102.021829,116.629668 C101.906085,116.451078 101.792635,116.306063 101.66215,116.164766 C101.583074,116.079137 101.50095,115.997599 101.373124,115.876246 C100.026391,114.59772 99.3153823,113.496963 97.9545613,109.999128 C96.8718324,107.205053 96.9993415,105.060949 98.2022181,104.100952 C99.7356991,102.877103 101.430849,104.461742 100.721048,106.351672 C100.536408,106.842851 101.168887,107.976698 102.366883,108.992249 C103.526401,109.975182 104.780687,110.457104 105.13508,110.266159 C105.462425,110.090939 105.605672,108.960464 105.357552,107.172808 C105.281494,106.62482 105.176142,106.042806 105.038141,105.380471 C104.962711,105.018442 104.682326,103.758164 104.636463,103.526136 C104.599012,103.339098 104.534796,103.090631 104.430225,102.72243 C104.397138,102.60593 104.177743,101.849493 104.110456,101.610838 C103.958685,101.072532 103.842304,100.622764 103.746003,100.186081 C103.194825,97.686729 103.383552,95.9715359 104.997033,95.2211888 C106.474963,94.5333111 107.787069,95.1941411 108.73336,96.6612719 C109.360154,97.6330522 109.845927,98.9706239 110.160928,100.367705 C110.805098,103.250233 112.473886,105.970267 114.234867,106.187254 C115.24047,106.310724 115.870546,105.672486 116.384648,104.17053 C116.490085,103.862497 116.583597,103.53789 116.6885,103.129944 C116.69184,103.116956 116.879907,102.364958 116.930207,102.182791 C116.983407,101.987638 117.02459,101.655721 117.079074,101.007494 C117.071984,101.091522 117.127408,100.420741 117.142328,100.251564 C117.168248,99.9576486 117.193527,99.7049598 117.222295,99.4615211 C117.565705,96.5555468 118.49824,94.9095219 120.776354,95.3674676 C122.661776,95.7470276 123.287756,97.4116403 123.058557,99.7083508 C122.919445,101.102345 122.513699,102.567216 121.918275,104.235442 C121.321033,105.900428 121.571231,107.166699 122.621243,107.83501 C123.034539,108.09896 123.623144,107.58589 126.016863,104.712666 C126.288855,104.386188 126.520932,104.11403 126.747782,103.857476 C129.294506,100.976634 132.645701,102.169406 131.299906,105.453995 C131.008827,106.162109 130.400178,107.275864 129.541725,108.717046 C129.457611,108.858258 129.371499,109.001905 129.283527,109.147794 C128.819619,109.917114 128.323307,110.717178 127.827083,111.501775 C127.682189,111.730872 127.545904,111.945022 127.420605,112.140839 C127.505174,112.523334 127.567948,113.040605 127.638616,113.761347 C127.680084,114.184278 127.717311,114.635197 127.749863,115.086058 C129.089844,115.697183 129.623039,116.265147 129.102815,117.270125 C128.766021,117.920749 128.192174,118.110745 126.697125,118.396158 C126.753459,118.385404 123.866179,118.884501 122.973305,119.078779 C122.879321,119.099229 122.78689,119.119837 122.694211,119.141026 C121.758154,119.353352 121.656952,119.518755 121.809846,119.981476 C121.909778,120.283914 122.128957,120.650391 122.432105,121.035334 C122.603479,121.252948 122.789338,121.461371 122.975003,121.651209 C123.084584,121.763251 123.166858,121.841559 123.207468,121.878059 L123.321991,121.999767 C124.51698,123.503972 128.418023,126.533657 134.356709,130.728977 C135.035362,131.211806 135.66811,131.707111 136.252911,132.214845 C138.986211,129.546406 141.493163,126.650187 143.723702,123.583656 C147.597578,118.28432 150.65531,112.451803 152.787104,106.309558 C154.90982,100.242421 156.123813,93.8514132 156.391819,87.4113296 C156.522659,84.181001 156.407278,80.9225104 156.052387,77.6651425 C154.161515,77.8416559 152.008826,77.8817902 148.435828,77.8640305 C148.101741,77.8623125 148.101741,77.8623125 147.768204,77.8604813 C146.026432,77.8509158 145.268088,77.8494181 144.339399,77.8577647 C136.219002,77.9259715 125.117498,75.0178014 123.009021,72.5090416 C122.335121,71.7111306 121.335208,70.9662738 120.03921,70.2457007 C119.545105,69.9709788 119.021764,69.7068211 118.428158,69.4274792 C118.195853,69.3181599 117.960652,69.2100936 117.676797,69.0816488 C117.57107,69.0338074 117.112165,68.8272106 116.994956,68.7740568 C116.71232,68.6454957 116.487285,68.5779306 116.146552,68.5085088 C116.06943,68.4930026 116.06943,68.4930026 115.987731,68.4770968 C114.255443,68.1407463 112.993967,67.5492558 110.012053,65.3585105 C107.597939,63.5900776 106.553078,61.7140769 107.051917,60.2571248 C107.687937,58.399513 109.969299,58.8257364 110.386143,60.8066299 C110.492525,61.3193151 111.633009,61.9356659 113.188266,62.1479907 C114.695431,62.35375 116.013121,62.0847876 116.211372,61.7296326 C116.3437,61.4943227 116.100123,60.7905108 115.365147,59.7904568 C115.038104,59.3454604 114.635978,58.8682087 114.159478,58.3508168 C113.641561,57.7884536 112.118425,56.2607146 112.16736,56.3119775 C111.933241,56.0667592 110.440079,54.748698 110.249477,54.5724398 C109.43934,53.8232667 108.839083,53.1789115 108.396744,52.533727 C107.57636,51.3371367 107.349004,50.1667116 108.019993,49.1158979 C108.897509,47.7406424 110.359158,47.5920559 111.943019,48.3224572 C112.993734,48.8069966 114.121909,49.6784951 115.130438,50.6870437 C117.247277,52.7820877 120.097377,54.1697954 121.698793,53.4010699 C122.47123,53.0329553 122.712586,52.3856131 122.566214,51.2717107 C122.504431,50.8015409 122.377495,50.2968341 122.175436,49.6629636 C122.124856,49.5042923 121.876675,48.7608947 121.822451,48.5838555 C121.776746,48.4374803 121.671417,48.2033436 121.494075,47.8553695 C121.403897,47.6784264 120.999433,46.9105391 120.899246,46.7157138 C120.673662,46.2770399 120.495127,45.9070317 120.339764,45.5468167 C119.360249,43.2757626 119.442259,41.5256443 121.408357,40.7663253 C123.20114,40.0775335 124.623275,41.1445804 125.663398,43.2015518 C126.296762,44.4541051 126.747944,45.9304988 127.13021,47.6285175 C127.522914,49.3591978 128.413382,50.2931587 129.659,50.2958 C130.087434,50.2958 130.394126,49.4537298 130.725462,46.766145 C130.76537,46.4411065 130.786589,46.2686203 130.806583,46.1089069 C130.838286,45.8556593 130.866178,45.6407165 130.894408,45.4342904 C130.929129,45.1803942 130.963583,44.9455043 130.999331,44.7212419 C131.600922,40.9260194 135.067403,40.1356557 135.69944,43.6260785 C135.838612,44.405756 135.923631,45.7282638 135.970955,47.4779715 C136.00627,48.7836437 136.016351,50.1493653 136.011756,51.3521337 C136.26444,51.6045973 136.561399,51.9624442 136.95654,52.4614644 C137.035716,52.5617203 137.035716,52.5617203 137.11428,52.6621765 C137.365781,52.9844777 137.6259,53.3280284 137.880822,53.6717747 C139.909294,53.4803956 141.059413,54.3119853 139.727498,56.0085322 C139.442305,56.3718019 139.036315,56.7728698 138.318244,57.4279317 C138.146692,57.5844303 137.513769,58.1564544 137.411584,58.2492593 C137.036727,58.5897065 136.737642,58.8660494 136.45003,59.1395643 C136.213215,59.3647711 135.993144,59.5797915 135.785833,59.7891609 C135.266197,60.3143166 135.189321,60.5725986 135.265099,60.7287069 C135.363471,60.9313578 135.72129,61.1908284 136.266552,61.4172301 C136.574688,61.5451736 136.913077,61.6520187 137.252542,61.7366921 C137.455527,61.7873234 137.609412,61.818418 137.687278,61.8313859 L137.850024,61.872784 C139.65798,62.4984298 144.507311,62.9523777 151.846006,63.3130015 C152.189262,63.3298435 152.521583,63.3519313 152.844835,63.379728 C151.372104,59.1554813 149.478977,55.1226527 147.200758,51.3636762 C144.005881,46.1139699 140.053966,41.3639388 135.464035,37.2430941 C132.154063,34.2641188 129.917869,30.40489 128.943984,26.1379357 C127.412186,19.4144446 129.168194,12.3416037 133.855589,7.11296539 C139.088772,1.29627048 146.986619,-1.12357933 154.478246,0.585037906 C158.000413,1.39170683 161.261316,3.062004 163.987647,5.51202354 C164.449559,5.92964254 164.883325,6.35555047 165.285178,6.78629376 L165.610042,7.12946764 C172.587942,14.6054995 178.468839,23.0966066 182.952069,32.1839091 C187.178697,40.7642541 190.199459,49.918883 191.90487,59.2788362 C193.690565,58.4711034 194.951259,57.8053606 195.597614,57.3188411 L195.737918,57.2304423 C195.796236,57.2001397 195.912838,57.1348396 196.067381,57.0399628 C196.327632,56.8801908 196.587642,56.7009504 196.826131,56.5095576 C197.492708,55.9746146 197.765647,55.5262121 197.692645,55.3319105 C197.632745,55.1724803 197.402082,54.9512621 196.920039,54.7022565 C196.756085,54.6175608 196.586587,54.5322258 196.410493,54.445602 C196.123915,54.3046287 192.689651,52.7534516 192.107076,52.3825501 C190.252386,51.2017458 191.018191,49.9868235 193.046896,49.5300578 C193.189396,49.1069616 193.336754,48.6837124 193.481654,48.2869117 C193.534585,48.1419638 193.586361,48.002861 193.636799,47.8703133 C193.82212,47.3833023 193.969923,47.0197109 194.109739,46.7430625 C194.047423,46.5525008 193.980148,46.3452427 193.908929,46.1239968 C193.647455,45.311714 193.385954,44.4764002 193.141594,43.663673 C193.070466,43.4271033 193.001696,43.1954054 192.935541,42.9692517 C192.454698,41.3254685 192.137398,40.0685857 192.031755,39.2938327 C191.563705,35.7799148 195.100324,35.4704231 196.838715,38.8952019 C196.973034,39.1598393 197.109294,39.4390388 197.260273,39.7571831 C197.288396,39.8164445 198.005607,41.3575436 198.204152,41.7605266 C199.007923,43.3919251 199.494458,43.8943723 199.824702,43.7865102 C201.016702,43.4002017 201.578881,42.2365333 201.419261,40.4720162 C201.259339,38.7451948 201.233921,37.1933244 201.451578,35.8056003 C201.808855,33.5276859 202.836065,32.0754009 204.754035,32.1853156 C207.004592,32.309362 207.534495,34.0802557 207.188865,36.8337003 C207.144576,37.1865215 207.089855,37.5388492 207.009387,38.0097805 C206.777421,39.3673532 206.758939,39.490134 206.762934,39.7503212 C206.764653,39.9000438 206.763898,40.0067631 206.760004,40.3399688 C206.75054,41.1496771 206.759468,41.5818223 206.81237,42.0714613 C206.964654,43.4809195 207.411577,44.1736871 208.354859,44.3000077 C210.116828,44.5271561 212.407074,42.3219215 213.767202,39.6914461 C214.420756,38.4171465 215.228952,37.2395444 216.081388,36.4546498 C217.366444,35.2714145 218.803977,34.962724 220.058676,36.0018444 C221.343095,37.0595152 221.195128,38.6619311 220.222984,40.7203512 C220.016811,41.156902 219.776116,41.6086369 219.480803,42.1244544 C219.544176,42.0137607 218.472168,43.831014 218.325955,44.1338405 C218.290262,44.2070905 217.498949,45.7499496 217.226136,46.3212738 C216.976684,46.8436744 216.764438,47.3246126 216.587378,47.7767269 C215.99472,49.2900444 215.895713,50.2987696 216.144467,50.530094 C216.440927,50.8046381 217.776585,50.6532759 219.147924,49.9920443 C220.560877,49.3107471 221.458596,48.3730601 221.40466,47.856058 C221.188821,45.8453021 223.225744,44.7316262 224.406297,46.3018639 Z M222.872903,47.6995065 C222.872871,47.699277 222.872838,47.6990476 222.872806,47.6988183 L222.399,47.7498 L222.872903,47.6995065 Z M221.630639,50.7792023 C219.556008,52.4353478 216.223521,53.3291905 214.784019,51.9961012 C213.676105,50.9658308 213.838501,49.3112762 214.725097,47.047405 C214.921456,46.5460142 215.152555,46.0223534 215.421341,45.4594649 C215.709498,44.8560073 216.505698,43.3036203 216.526464,43.2610189 C216.713454,42.8737163 217.860074,40.9299844 217.745129,41.1307567 C218.016453,40.656839 218.2338,40.248924 218.414524,39.8662577 C219.028673,38.5658576 219.099158,37.8025399 218.785161,37.5439701 C218.445231,37.2624467 218.068959,37.3432459 217.436112,37.9259502 C216.786659,38.5239436 216.102159,39.5213127 215.545282,40.607098 C213.828453,43.9274457 210.993906,46.6567778 208.094281,46.2829538 C206.032683,46.0068992 205.063638,44.504801 204.823943,42.2862985 C204.759919,41.6937231 204.74978,41.2029929 204.76014,40.3165945 C204.763827,40.001193 204.764534,39.9011703 204.763118,39.7771828 C204.756205,39.3278264 204.763724,39.2778761 205.037959,37.6729261 C205.113868,37.22867 205.164557,36.9023077 205.204438,36.5846021 C205.42082,34.8608098 205.227408,34.2144427 204.641787,34.182162 C204.053911,34.1484728 203.645339,34.7261176 203.427422,36.1154997 C203.241799,37.2989934 203.264967,38.7135533 203.410933,40.2897057 C203.646974,42.8989796 202.643904,44.9752598 200.44348,45.6883798 C198.712211,46.2538504 197.645804,45.1525673 196.410081,42.6444443 C196.1999,42.2178437 195.473085,40.6561091 195.453409,40.614647 C195.309503,40.3114054 195.180767,40.0476232 195.055297,39.8004214 C194.200432,38.1162645 193.896115,38.1428955 194.01383,39.0266868 C194.101143,39.6669788 194.402131,40.8592451 194.855099,42.4077386 C194.919814,42.6289685 194.987167,42.8558954 195.056895,43.0878054 C195.297178,43.8869716 195.554937,44.7103363 195.812724,45.5111653 C195.90296,45.7914893 195.986725,46.0488806 196.061846,46.2775408 C196.106783,46.414323 196.138951,46.5114307 196.155584,46.5612746 L196.362088,47.18014 L195.878867,47.6184722 C195.948465,47.5553388 195.893997,47.6501603 195.836377,47.7756234 C195.743722,47.9773712 195.631709,48.2513577 195.506039,48.5816096 C195.458935,48.7053961 195.410274,48.8361302 195.360313,48.9729442 C195.22136,49.3534576 195.078812,49.7629592 194.94084,50.1727082 C194.858032,50.4186291 194.795371,50.6093219 194.760731,50.7167333 L194.566877,51.3178315 L194.457719,51.3323455 C195.572539,51.8592058 197.026274,52.5196292 197.2933,52.6509844 C197.480829,52.7432333 197.661995,52.8344424 197.837948,52.9253368 C198.722759,53.3823982 199.307324,53.943027 199.564863,54.6284902 C200.046336,55.909975 199.356499,57.0432842 198.07792,58.0693736 C197.582668,58.4668244 197.094672,58.7725013 196.733693,58.9662672 C195.772431,59.6702718 194.027981,60.5498658 191.538223,61.6275221 L190.367805,62.1341212 L190.155017,60.8766461 C188.529083,51.2681304 185.489013,41.8600832 181.1582,33.068237 C176.762041,24.1574237 170.993009,15.8278321 164.152822,8.49930624 L163.827828,8.15599359 C163.460236,7.76200985 163.06687,7.37576984 162.648591,6.99759373 C160.179948,4.77915149 157.226162,3.2661657 154.03264,2.53476455 C147.242059,0.98603557 140.085402,3.17878944 135.343594,8.44931721 C131.095686,13.1877246 129.504739,19.5957367 130.893929,25.6932833 C131.776902,29.5619193 133.801635,33.0562095 136.80106,35.7556927 C141.534952,40.0057843 145.612463,44.9067768 148.910192,50.3254894 C151.537549,54.6605266 153.666769,59.3439926 155.248905,64.2594079 L155.750981,65.8192678 L154.134178,65.5524554 C153.399874,65.4312772 152.616305,65.3532025 151.747919,65.3105948 C144.238054,64.9415597 139.394192,64.492335 137.275805,63.7898546 C136.803058,63.7049251 136.158905,63.5380864 135.499603,63.2643333 C134.543974,62.8675397 133.828203,62.348503 133.465877,61.6020909 C132.968723,60.5779247 133.302991,59.4548887 134.364409,58.3821949 C134.58684,58.1575557 134.821097,57.9286747 135.071781,57.690278 C134.956951,57.7994794 136.153774,56.7092426 137.095609,55.8203294 L136.985044,55.8404067 L136.616007,55.3288563 C136.55224,55.2404633 136.437649,55.0834512 136.287569,54.8809276 C136.037453,54.5434112 135.782175,54.206081 135.537527,53.8925631 C135.463088,53.7973814 135.463088,53.7973814 135.388576,53.7030313 C135.135546,53.3834819 134.915248,53.1182472 134.740448,52.924552 C134.652505,52.8271028 134.579494,52.7516533 134.526656,52.7028024 C134.526024,52.700611 134.543676,52.710164 134.613111,52.7400985 L134.002671,52.4769311 L134.009046,51.8122105 C134.009474,51.7677299 134.009474,51.7677299 134.010796,51.5570464 C134.017397,50.3232238 134.008444,48.8910729 133.971687,47.5320455 C133.927067,45.882318 133.846296,44.625905 133.731002,43.9799807 C133.571645,43.0999342 133.270413,43.1686157 132.974533,45.0352141 C132.941131,45.2447583 132.908789,45.4652515 132.875964,45.705279 C132.848887,45.9032769 132.821926,46.1110403 132.791093,46.3573412 C132.771409,46.5145732 132.750506,46.6845006 132.710434,47.0108604 C132.227203,50.9305161 131.729951,52.2958 129.656881,52.2957978 C127.347536,52.2909051 125.75932,50.6251157 125.179416,48.0694288 C124.83036,46.5189312 124.418927,45.1726078 123.878602,44.1040482 C123.243521,42.8480982 122.6756,42.4219799 122.127272,42.6326473 C121.616175,42.8300366 121.589708,43.3948542 122.176232,44.7547403 C122.31101,45.0672294 122.471213,45.3992426 122.677855,45.8010826 C122.771394,45.9829811 123.17815,46.755219 123.276003,46.9472224 C123.501533,47.3897471 123.643057,47.7043431 123.733135,47.9928728 C123.780062,48.1460475 124.023247,48.8744798 124.080963,49.0555369 C124.315964,49.7927461 124.469045,50.4014124 124.549167,51.0111404 C124.797248,52.8990473 124.234611,54.4080957 122.561754,55.205312 C119.925581,56.4707575 116.393479,54.7509837 113.719893,52.1049068 C112.860086,51.2450994 111.905106,50.5073917 111.105481,50.1386428 C110.326497,49.7794123 109.944287,49.8182665 109.705829,50.1919814 C109.557817,50.4237778 109.630064,50.7957034 110.046288,51.4027967 C110.386637,51.8992211 110.897488,52.4476024 111.607362,53.1040563 C111.739445,53.2262004 113.311189,54.6136252 113.613344,54.9302665 C113.534197,54.8475924 115.079601,56.3976159 115.630632,56.9959347 C116.153276,57.5634308 116.600906,58.0946871 116.976725,58.6060506 C118.14538,60.1961962 118.611256,61.5423357 117.956178,62.7072011 C117.002717,64.4153249 113.576237,64.5984049 111.094633,63.6716477 C111.12769,63.6963225 111.161167,63.7210782 111.195068,63.7459117 C113.952089,65.7714321 114.946045,66.2374859 116.368942,66.5137635 C116.455527,66.5306158 116.455527,66.5306158 116.545833,66.5487704 C117.023229,66.6460361 117.387348,66.7553604 117.822005,66.9530712 C117.935066,67.0043429 118.392959,67.2104842 118.501315,67.2595153 C118.793499,67.3917291 119.037242,67.5037199 119.279748,67.6178396 C119.911232,67.9150066 120.473421,68.1987728 121.011088,68.4977152 C122.500245,69.3256847 123.681435,70.2055784 124.538536,71.2204072 C126.158335,73.1477134 136.74673,75.9214683 144.322013,75.8578404 C145.26309,75.8493823 146.027618,75.8508922 147.779187,75.8605115 C148.112543,75.8623416 148.112543,75.8623416 148.445769,75.8640552 C152.575122,75.8845802 154.757589,75.8264251 156.80757,75.5714467 L157.800612,75.4479313 L157.923439,76.4410583 C158.379833,80.1312763 158.538584,83.8283253 158.390135,87.4933793 C158.11393,94.130498 156.862976,100.716082 154.675718,106.967684 C152.47962,113.295216 149.329222,119.30449 145.339694,124.762029 C142.858263,128.173489 140.04371,131.380937 136.961749,134.308799 L136.272275,134.9638 L135.58349,134.308076 C134.882737,133.640959 134.085492,132.990538 133.200014,132.360554 C127.126234,128.069806 123.224136,125.044601 121.808282,123.308757 C121.551262,123.070969 121.207451,122.712855 120.860843,122.272724 C120.426248,121.720867 120.095493,121.16783 119.910828,120.608955 C119.377122,118.993734 120.194916,117.657136 122.250108,117.190957 C122.34805,117.168563 122.447328,117.146429 122.548079,117.124506 C123.266224,116.968247 125.133194,116.637858 125.941717,116.497015 L125.831906,116.45233 L125.794738,115.822731 C125.787949,115.70773 125.774761,115.503603 125.755799,115.24038 C125.724209,114.801869 125.68808,114.36364 125.648161,113.956509 C125.604528,113.511501 125.559043,113.132287 125.513188,112.843768 C125.480391,112.637407 125.438001,112.466339 125.487389,112.542068 L125.13219,111.997429 L125.4859,111.451823 C125.517537,111.403025 125.578604,111.308356 125.663922,111.175338 C125.806518,110.953021 125.96551,110.703523 126.136776,110.432728 C126.625945,109.659286 127.115027,108.870877 127.57082,108.115014 C127.656964,107.972157 127.741225,107.831598 127.823457,107.693545 C128.631892,106.336333 129.208707,105.280831 129.44966,104.694661 C129.788489,103.867705 129.499211,103.764744 128.246144,105.182208 C128.033902,105.42224 127.813902,105.680235 127.553472,105.992834 C127.456861,106.108798 127.357922,106.228336 127.229388,106.384209 C127.067866,106.580235 127.067866,106.580235 126.906799,106.775541 C126.642631,107.095484 126.452058,107.323211 126.264476,107.541467 C125.767965,108.11917 125.358277,108.550219 124.959139,108.898137 C123.802849,109.906042 122.656588,110.230655 121.546056,109.521418 C119.599541,108.282504 119.152807,106.02155 120.035192,103.56165 C120.579133,102.037662 120.949673,100.699898 121.068443,99.5097492 C121.208374,98.1075484 120.95898,97.4443571 120.381923,97.328188 C119.787873,97.2087722 119.427194,97.8454095 119.208474,99.6962357 C119.182311,99.9176354 119.158912,100.151535 119.134596,100.427262 C119.119629,100.59697 119.060974,101.307338 119.073373,101.159208 C119.007212,101.94995 118.957971,102.348664 118.858936,102.711933 C118.81541,102.869585 118.634449,103.593171 118.625482,103.628041 C118.508709,104.082145 118.401846,104.453098 118.27687,104.818216 C117.49334,107.107308 116.176971,108.440728 113.990706,108.172294 C111.090747,107.814963 109.022508,104.443846 108.209489,100.80575 C107.942005,99.6194188 107.530382,98.4860192 107.05264,97.7453281 C106.586041,97.0219133 106.241089,96.8481813 105.84068,97.0345446 C105.437275,97.2221478 105.338464,98.1201601 105.699075,99.7553743 C105.785828,100.148763 105.893215,100.56377 106.035411,101.068113 C106.10014,101.297698 106.318818,102.051662 106.354139,102.176029 C106.472145,102.591536 106.547081,102.88148 106.598017,103.135878 C106.638738,103.341877 106.91603,104.588256 106.996094,104.972523 C107.142549,105.675439 107.255515,106.299511 107.338562,106.897852 C107.70321,109.525079 107.48097,111.27896 106.081336,112.028144 C104.355146,112.958228 101.350675,111.251444 99.7608549,109.122583 C99.7797059,109.173032 99.7990712,109.223914 99.8189549,109.275226 C101.076427,112.507412 101.626571,113.359124 102.75013,114.42578 C102.907046,114.574748 103.016768,114.683688 103.131467,114.807891 C103.337619,115.031127 103.521196,115.265779 103.698738,115.539727 C103.702666,115.545754 104.160991,116.244698 104.308913,116.473478 C104.570449,116.877977 104.796133,117.237796 105.012429,117.598772 C105.919119,119.111939 106.551677,120.47008 106.885406,121.796054 C106.966534,122.118392 107.028464,122.43539 107.070132,122.74692 C107.404215,125.238785 114.858402,133.272339 121.27395,137.266397 C122.101897,137.785156 122.347236,137.942426 124.414939,139.273919 C124.691504,139.452012 124.915079,139.595784 125.130149,139.733772 C125.713431,140.108003 126.205069,140.420912 126.673191,140.715176 L127.999507,141.548902 L126.68489,142.400956 C122.377004,145.193067 117.74098,147.514139 112.87785,149.31372 C106.329956,151.735183 99.3674297,153.196201 92.3054139,153.62985 C85.2269689,154.072507 78.0347063,153.457683 71.056386,151.811317 C64.049626,150.165898 57.2714648,147.467337 51.0071067,143.82273 C44.7237646,140.17669 38.9278066,135.548941 33.8737284,130.146024 C28.7936198,124.731457 24.5259646,118.574571 21.2477715,111.907367 C17.935642,105.17738 15.6123732,97.9393659 14.3804549,90.4892892 C13.1373672,82.9881079 12.9991713,75.2798474 13.9770834,67.6889085 C14.9552032,60.0428989 17.072137,52.5317763 20.2470882,45.4734137 C23.4532955,38.3489607 27.6968792,31.7253022 32.8828104,25.7691433 C33.9119864,24.5871044 33.8703104,22.7899986 32.7731949,21.660044 C31.6138751,20.4648228 29.7059928,20.4267643 28.5029881,21.5708381 L28.4555715,21.6252874 C22.3798797,27.5238627 17.1252903,34.3848709 13.007853,41.8221884 C8.85081585,49.3302056 5.79933457,57.4869825 3.99071886,65.9377186 C2.16380364,74.4467748 1.58646017,83.2232946 2.29176775,91.9194628 C2.99815295,100.683798 4.99796673,109.350157 8.22181111,117.582299 C11.4721645,125.859893 15.9665478,133.674428 21.5119507,140.676242 C27.1103287,147.769119 33.7107617,154.015485 41.0794873,159.159287 C48.4985059,164.366448 56.7456469,168.486017 65.4518439,171.333339 C74.165609,174.183136 83.3313413,175.75259 92.5665279,175.974077 C101.848006,176.192511 111.179602,175.045561 120.175003,172.571826 C129.224439,170.074746 137.930745,166.223456 145.906937,161.180355 C147.711235,160.040591 149.484779,158.833789 151.21896,157.566426 L151.677181,157.231552 L152.199632,157.453253 C154.19489,158.299937 156.42696,158.953046 160.80278,160.063037 C161.009855,160.115565 161.833879,160.32418 162.038401,160.376059 C163.179094,160.665408 163.95252,160.865191 164.716973,161.070184 C172.010111,163.033721 182.970986,163.010381 185.022648,161.563435 C185.993632,160.871469 187.198515,160.34859 188.630906,159.937655 C189.305798,159.744037 190.01138,159.580556 190.796283,159.427879 C191.099519,159.368895 191.404777,159.313299 191.760785,159.251336 C191.93384,159.221216 192.49367,159.125588 192.589154,159.109027 C193.079979,159.02238 193.463921,159.009177 193.980045,159.037719 C194.079691,159.043463 194.079691,159.043463 194.174925,159.049354 C195.551619,159.134176 196.687418,158.915819 199.819496,157.668571 C199.861176,157.651997 199.902368,157.635387 199.943072,157.618747 C197.306386,157.899315 194.028879,156.865027 193.534634,154.97297 C193.320364,154.167808 193.57477,153.370998 194.155926,152.599234 C194.758423,151.799129 195.714547,151.011677 197.00341,150.162552 C197.474934,149.851904 197.956849,149.554807 198.55122,149.202369 C198.71579,149.104787 199.312673,148.753681 199.195555,148.822696 C199.420768,148.689983 199.565606,148.603332 199.686775,148.52822 C200.052591,148.303027 201.917205,147.361889 202.247471,147.181679 C204.042816,146.20205 204.826594,145.409092 204.670219,144.925664 C204.53352,144.506219 204.171311,144.372662 203.322462,144.525063 C202.454576,144.680881 201.345122,145.151222 200.286129,145.764844 C197.065851,147.649633 193.197435,148.434129 190.964321,146.553936 C189.869101,145.635201 189.504539,144.418931 189.761615,143.075383 C189.921554,142.239497 190.293959,141.420725 190.86787,140.477221 C191.053122,140.172668 191.591397,139.34542 191.633781,139.276989 C191.798998,139.009016 192.028409,138.72494 192.391258,138.317625 C192.489539,138.2073 193.133268,137.499843 193.323774,137.28405 C193.768607,136.780171 194.094319,136.37185 194.341533,135.994363 C194.902075,135.138433 194.923495,134.768594 194.537866,134.492176 C194.060826,134.14975 193.406226,134.418266 192.475878,135.473593 C191.685214,136.370471 190.955432,137.556373 190.214664,138.984416 C189.022609,141.307 187.060234,142.523331 184.82349,141.950685 C183.62031,141.643323 183.057794,140.66459 182.962343,139.26795 C182.903359,138.404914 182.967287,137.736393 183.238935,135.691383 C183.306269,135.184478 183.346125,134.870845 183.383394,134.543583 C183.401451,134.38502 183.417512,134.234126 183.431786,134.088079 C183.616702,132.204854 183.34507,132.063988 182.970989,132.874795 C182.763053,133.325405 182.481481,134.133384 182.154006,135.204756 C182.048211,135.550877 181.938598,135.921192 181.8259,136.312336 C181.56944,137.202447 181.308979,138.157913 181.058341,139.113624 C180.970569,139.44831 180.890319,139.759026 180.819293,140.037708 C180.776792,140.204471 180.746895,140.323155 180.731298,140.385713 L180.571313,141.027402 L180.003502,141.117788 C179.933374,141.157509 179.838709,141.215787 179.723353,141.292403 C179.496385,141.443148 179.20605,141.653425 178.869957,141.908855 C178.780323,141.977141 178.780323,141.977141 178.690784,142.045963 C178.38197,142.283811 178.059428,142.539647 177.743153,142.795605 C177.553425,142.94915 177.408493,143.068169 177.327835,143.135144 L176.841943,143.538611 L176.711796,143.478349 C176.713887,143.481596 176.715983,143.484849 176.718084,143.488107 C176.75657,143.547811 177.738183,145.044109 178.049469,145.536461 C178.301265,145.934719 178.526763,146.304238 178.734779,146.661929 C179.461174,147.907178 179.533837,149.029317 178.880979,149.891644 C178.387436,150.543541 177.602782,150.891019 176.615974,151.059034 C175.962614,151.170275 175.291991,151.190189 174.686169,151.159372 C174.641512,151.1571 174.602223,151.154777 174.568713,151.152555 C172.648478,151.283167 168.769054,150.715246 163.069129,149.588827 L161.232313,149.225835 L162.555476,147.901111 C164.320643,146.13386 165.932515,144.410604 167.431243,142.676647 C173.729605,135.452405 178.971128,127.258646 182.904298,118.469173 C186.861551,109.630317 189.515875,100.193666 190.755105,90.5387361 C191.452238,85.0967291 191.705109,79.5932008 191.507646,74.103748 L191.480579,73.3512777 L192.196261,73.1173047 C192.430571,73.0407034 192.670936,72.9627738 192.97447,72.8648501 C193.359038,72.7409171 193.593048,72.6655317 193.73918,72.6183555 L193.747635,72.6156614 C200.961461,70.3522925 210.195105,64.447949 211.145029,62.1222045 C211.702023,60.7562991 212.6877,59.4322488 214.05951,58.0290349 C214.418032,57.6623062 214.792583,57.3004748 215.220137,56.903306 C215.381554,56.753361 215.542006,56.6061636 215.746738,56.4196977 C215.99128,56.1973033 216.112909,56.0866612 216.2119,55.9960733 C216.542195,55.6938186 216.846172,55.4783636 217.224751,55.2597784 C217.287478,55.2235614 217.350117,55.1883525 217.432217,55.1428931 C218.752661,54.4117557 219.522655,53.6995387 221.543893,50.9009021 C221.57332,50.8600949 221.602234,50.8195275 221.630639,50.7792023 Z" id="Fill-3"></path>
                        </g>
                    </g>
                </g>
            </g>
        </g>
    </g>
</svg>